<svg xmlns="http://www.w3.org/2000/svg" xmlns:xlink="http://www.w3.org/1999/xlink" id="Layer_1" x="0" y="0" enable-background="new 0 0 740 250" version="1.1" viewBox="0 0 740 250" xml:space="preserve"><style type="text/css">.st0{fill:#fff}.st1{fill-rule:evenodd;clip-rule:evenodd;fill:#82949e}.st2{font-family:&apos;OpenSans&apos;}.st3{font-size:14px}.st4,.st5{fill-rule:evenodd;clip-rule:evenodd;fill:#1488c6}.st5{fill:#00b6b5}.st6{fill:none;stroke:#82949e;stroke-width:2;stroke-linecap:round;stroke-linejoin:round}.st7{fill-rule:evenodd;clip-rule:evenodd;fill:#8f9ea8}.st8{fill:#637986}.st9{font-family:&apos;Courier-Bold&apos;}</style><rect width="740" height="250" class="st0"/><title>architecture-1</title><desc>Created with Sketch.</desc><g id="dtr-diagrams"><g id="architecture-1"><g id="Group" transform="translate(33.000000, 51.000000)"><g id="stack" transform="translate(150.000000, 0.000000)"><g id="servers" transform="translate(0.000000, 114.000000)"><g id="cloud"><path id="Rectangle-138" d="M2,0h168c1.1,0,2,0.9,2,2v30c0,1.1-0.9,2-2,2H2c-1.1,0-2-0.9-2-2V2C0,0.9,0.9,0,2,0z" class="st1"/><text class="st0 st2 st3" transform="matrix(1 0 0 1 42.5098 23)">cloud servers</text></g><g id="virtual"><path d="M2,0h168c1.1,0,2,0.9,2,2v30c0,1.1-0.9,2-2,2H2c-1.1,0-2-0.9-2-2V2C0,0.9,0.9,0,2,0z" class="st1" transform="translate(176.000000, 0.000000)"/><text class="st0 st2 st3" transform="translate(176.000000, 0.000000) matrix(1 0 0 1 39.8608 23)">virtual servers</text></g><g id="physical"><path d="M2,0h168c1.1,0,2,0.9,2,2v30c0,1.1-0.9,2-2,2H2c-1.1,0-2-0.9-2-2V2C0,0.9,0.9,0,2,0z" class="st1" transform="translate(352.000000, 0.000000)"/><text class="st0 st2 st3" transform="translate(352.000000, 0.000000) matrix(1 0 0 1 34.2075 23)">physical servers</text></g></g><g id="docker"><path d="M2,0h520c1.1,0,2,0.9,2,2v30c0,1.1-0.9,2-2,2H2c-1.1,0-2-0.9-2-2V2C0,0.9,0.9,0,2,0z" class="st4" transform="translate(0.000000, 76.000000)"/><text class="st0 st2 st3" transform="translate(0.000000, 76.000000) matrix(1 0 0 1 205.936 23)">Docker Engine EE</text></g><g id="ucp"><path d="M2,0h520c1.1,0,2,0.9,2,2v30c0,1.1-0.9,2-2,2H2c-1.1,0-2-0.9-2-2V2C0,0.9,0.9,0,2,0z" class="st4" transform="translate(0.000000, 38.000000)"/><text class="st0 st2 st3" transform="translate(0.000000, 38.000000) matrix(1 0 0 1 185.5366 23)">Universal Control Plane</text></g><g id="dtr"><path d="M2,0h168c1.1,0,2,0.9,2,2v30c0,1.1-0.9,2-2,2H2c-1.1,0-2-0.9-2-2V2C0,0.9,0.9,0,2,0z" class="st4"/><text class="st0 st2 st3" transform="matrix(1 0 0 1 8.1318 23)">Docker Trusted Registry</text></g><g id="your-apps"><path d="M2,0h344c1.1,0,2,0.9,2,2v30c0,1.1-0.9,2-2,2H2c-1.1,0-2-0.9-2-2V2C0,0.9,0.9,0,2,0z" class="st5" transform="translate(176.000000, 0.000000)"/><text class="st0 st2 st3" transform="translate(176.000000, 0.000000) matrix(1 0 0 1 118.4282 23)">your applications</text></g></g><g id="commands" transform="translate(0.000000, 7.000000)"><g id="command-2" transform="translate(0.000000, 38.000000)"><path id="Line" d="M101,10h35" class="st6"/><circle id="Oval" cx="138" cy="10" r="5" class="st7"/><text class="st8 st9 st3" transform="matrix(1 0 0 1 0 12)">docker run</text></g><g id="command-1"><path d="M101,9h35" class="st6"/><circle cx="138" cy="9" r="5" class="st1"/><text class="st8 st9 st3" transform="matrix(1 0 0 1 0 12)">docker push</text></g></g></g></g></g></svg>