<svg xmlns="http://www.w3.org/2000/svg" xmlns:xlink="http://www.w3.org/1999/xlink" id="Layer_1" x="0" y="0" enable-background="new 0 0 740 220" version="1.1" viewBox="0 0 740 220" xml:space="preserve"><style type="text/css">.st0{fill:#fff}.st1{fill:none;stroke:#e0e4e7;stroke-width:2;stroke-linecap:round;stroke-linejoin:round}.st2{fill-rule:evenodd;clip-rule:evenodd;fill:#1488c6}.st3{font-family:&apos;OpenSans&apos;}.st4{font-size:12px}</style><rect width="738" height="216" x="2" y="3" class="st0"/><title>deploy-cache-simple-1</title><desc>Created with Sketch.</desc><g id="dtr-diagrams"><g id="deploy-cache-simple-1"><g id="Group" transform="translate(265.000000, 20.000000)"><g id="lines" transform="translate(52.000000, 39.000000)"><path id="Line" d="M117.5,93.5l-64-93" class="st1"/><path id="Line-Copy" d="M0.5,79.5l53-79" class="st1"/></g><g id="cache-eur" transform="translate(130.000000, 100.000000)"><circle id="Oval-2" cx="40" cy="40" r="40" class="st2"/><text class="st0 st3 st4" transform="matrix(1 0 0 1 10.1201 36)">DTR cache</text><text class="st0 st3 st4" transform="matrix(1 0 0 1 15.5928 53)">(Europe)</text></g><g id="cache-as" transform="translate(0.000000, 100.000000)"><circle cx="40" cy="40" r="40" class="st2"/><text class="st0 st3 st4" transform="matrix(1 0 0 1 10.1201 36)">DTR cache</text><text class="st0 st3 st4" transform="matrix(1 0 0 1 24.1562 53)">(Asia)</text></g><g id="dtr" transform="translate(65.000000, 0.000000)"><circle cx="40" cy="40" r="40" class="st2"/><text class="st0 st3 st4" transform="matrix(1 0 0 1 7.0322 36)">DTR cluster</text><text class="st0 st3 st4" transform="matrix(1 0 0 1 28.4453 53)">(US)</text></g></g></g></g></svg>