<svg xmlns="http://www.w3.org/2000/svg" xmlns:xlink="http://www.w3.org/1999/xlink" id="Layer_1" x="0" y="0" enable-background="new 0 0 740 250" version="1.1" viewBox="0 0 740 250" xml:space="preserve"><style type="text/css">.st0{fill:#fff}.st1{fill:#82949e}.st2{font-family:&apos;OpenSans&apos;}.st3{font-size:12px}.st4{fill:none;stroke:#82949e;stroke-width:2;stroke-dasharray:5,5,5,5}.st5{fill:none;stroke:#e0e4e7;stroke-linecap:square}.st6{font-size:14px}.st7{fill:#8f9ea8}.st8{font-family:&apos;MyriadPro-Regular&apos;}.st9{font-size:26px}.st10{fill-rule:evenodd;clip-rule:evenodd;fill:#e0e4e7}.st11{fill:none;stroke:#fff;stroke-width:2}</style><rect width="740" height="250" class="st0"/><title>pull-mirror-1</title><desc>Created with Sketch.</desc><g id="dtr-diagrams"><g id="pull-mirror-1"><g id="all" transform="translate(129.000000, 3.000000)"><g id="right" transform="translate(283.000000, 0.000000)"><text class="st1 st2 st3" transform="matrix(1 0 0 1 11.025 234.0095)">DTR at qa.example.org</text><path id="group" d="M2,0h196c1.1,0,2,0.9,2,2v241c0,1.1-0.9,2-2,2H2c-1.1,0-2-0.9-2-2V2C0,0.9,0.9,0,2,0z" class="st4"/><g id="website-dev" transform="translate(31.000000, 47.000000)"><text class="st1 st2 st3" transform="matrix(1 0 0 1 38 40)">1</text><text class="st1 st2 st3" transform="matrix(1 0 0 1 38 57)">2</text><text class="st1 st2 st3" transform="matrix(1 0 0 1 38 74)">3-stable</text><path id="Line" d="M31.5,31.5v42" class="st5"/><text class="st1 st2 st6" transform="matrix(1 0 0 1 31 19)">website/ui</text><text class="st7 st8 st9" transform="matrix(1 0 0 1 0 22)"></text></g></g><g id="Shape"><g transform="translate(241.843068, 138.250000) scale(-1, 1) rotate(43.000000) translate(-241.843068, -138.250000)"><path id="path-1" d="M245.6,112c-14.1,0-25.5,11.1-26.2,25h-7.6l11.3,14.8l11.2-14.8l-7.4,0 c0.7-9.8,8.8-17.5,18.7-17.5c10.3,0,18.8,8.4,18.8,18.8s-8.4,18.7-18.8,18.7c-6,0-11.3-2.8-14.7-7.1l-4.6,6.1 c4.8,5.2,11.7,8.5,19.3,8.5c14.5,0,26.3-11.8,26.3-26.2S260.1,112,245.6,112z" class="st10"/></g><path d="M228,136l8.3,0l-13.2,17.4L209.8,136h8.7c1.2-14,12.9-25,27.1-25c15,0,27.2,12.2,27.2,27.3 s-12.2,27.2-27.3,27.2c-7.7,0-14.9-3.2-20-8.8l-0.6-0.6l5.9-7.8l0.8,1c3.4,4.2,8.4,6.8,13.9,6.8c9.8,0,17.8-8,17.8-17.7 s-8-17.8-17.8-17.8C236.6,120.5,229.1,127.2,228,136z" class="st11" transform="translate(241.843068, 138.250000) scale(-1, 1) rotate(43.000000) translate(-241.843068, -138.250000)"/></g><g id="middle"><text class="st1 st2 st3" transform="matrix(1 0 0 1 11.025 234.0095)">DTR at dev.example.org</text><path d="M2,0h196c1.1,0,2,0.9,2,2v241c0,1.1-0.9,2-2,2H2c-1.1,0-2-0.9-2-2V2C0,0.9,0.9,0,2,0z" class="st4"/><g><text class="st1 st2 st3" transform="translate(31.000000, 47.000000) matrix(1 0 0 1 38 40)">1</text><text class="st1 st2 st3" transform="translate(31.000000, 47.000000) matrix(1 0 0 1 38 57)">2</text><text class="st1 st2 st3" transform="translate(31.000000, 47.000000) matrix(1 0 0 1 38 74)">3-stable</text><path d="M31.5,31.5v42" class="st5" transform="translate(31.000000, 47.000000)"/><text class="st1 st2 st6" transform="translate(31.000000, 47.000000) matrix(1 0 0 1 31 19)">website/ui</text><text class="st7 st8 st9" transform="translate(31.000000, 47.000000) matrix(1 0 0 1 0 22)"></text></g></g></g></g></g></svg>