<svg xmlns="http://www.w3.org/2000/svg" xmlns:xlink="http://www.w3.org/1999/xlink" id="Layer_1" x="0" y="0" enable-background="new 0 0 740 383" version="1.1" viewBox="0 0 740 383" xml:space="preserve"><style type="text/css">.st0{fill:#e0e4e7}.st1{font-family:&apos;OpenSans&apos;}.st2{font-size:10px}.st3{fill:none;stroke:#e0e4e7;stroke-width:2;stroke-dasharray:5,5,5,5}.st4{fill-rule:evenodd;clip-rule:evenodd;fill:#1488c6}.st5{fill:#fff}.st6{font-size:14px}.st7{fill-rule:evenodd;clip-rule:evenodd;fill:#254356}.st8{fill:none;stroke:#1488c6;stroke-width:2;stroke-linecap:round;stroke-linejoin:round}.st9{fill-rule:evenodd;clip-rule:evenodd;fill:#82949e}.st10{fill:#637986}.st11{font-family:&apos;Courier-Bold&apos;}.st12{fill-rule:evenodd;clip-rule:evenodd;fill:#fff;stroke:#82949e;stroke-width:2}.st13{fill:#82949e}.st14{font-size:12px}.st15{fill:none;stroke:#e0e4e7;stroke-linecap:square}</style><title>sign-an-image-1</title><desc>Created with Sketch.</desc><text class="st0 st1 st2" transform="matrix(1 0 0 1 63.8219 278.0095)">DTR</text><path id="group" d="M55,106h364c1.1,0,2,0.9,2,2v176c0,1.1-0.9,2-2,2H55c-1.1,0-2-0.9-2-2V108C53,106.9,53.9,106,55,106	z" class="st3"/><g id="notary" transform="translate(176.000000, 0.000000)"><path id="Rectangle-138" d="M65,224h168c1.1,0,2,0.9,2,2v30c0,1.1-0.9,2-2,2H65c-1.1,0-2-0.9-2-2v-30 C63,224.9,63.9,224,65,224z" class="st4"/><text class="st5 st1 st6" transform="matrix(1 0 0 1 105.9927 247)">notary server</text></g><g id="registry"><path d="M65,224h168c1.1,0,2,0.9,2,2v30c0,1.1-0.9,2-2,2H65c-1.1,0-2-0.9-2-2v-30C63,224.9,63.9,224,65,224z" class="st4"/><text class="st5 st1 st6" transform="matrix(1 0 0 1 124.9146 247)">registry</text></g><path id="Rectangle-2" d="M65,303h167c1.1,0,2,0.6,2,1.3v65.3c0,0.7-0.9,1.3-2,1.3H65c-1.1,0-2-0.6-2-1.3v-65.3	C63,303.6,63.9,303,65,303z" class="st7"/><path d="M149.5,257.5V308" class="st8"/><g id="others"><path d="M65,115h344c1.1,0,2,0.9,2,2v63c0,1.1-0.9,2-2,2H65c-1.1,0-2-0.9-2-2v-63C63,115.9,63.9,115,65,115z" class="st9" transform="translate(0.000000, 38.000000)"/></g><g id="front-end"><path d="M65,115h344c1.1,0,2,0.9,2,2v30c0,1.1-0.9,2-2,2H65c-1.1,0-2-0.9-2-2v-30C63,115.9,63.9,115,65,115z" class="st4"/><text class="st5 st1 st6" transform="matrix(1 0 0 1 206.5093 138)">front-end</text></g><g id="user" transform="translate(130.000000, 0.000000)"><text class="st10 st11 st6" transform="matrix(1 0 0 1 53 59)">&gt; docker push</text><path id="Shape" d="M108,25c3.6,0,6.5-2.9,6.5-6.5S111.6,12,108,12s-6.5,2.9-6.5,6.5S104.4,25,108,25L108,25z M108,28.2c-4.3,0-13,2.2-13,6.5V38h26v-3.2C121,30.4,112.3,28.2,108,28.2L108,28.2z" class="st9"/></g><path d="M410,132h50.5" class="st8"/><g id="chrome"><rect width="228" height="144" x="460" y="115" class="st12"/></g><g id="table" transform="translate(9.000000, 60.000000)"><g id="data"><text class="st13 st1 st14" transform="translate(0.000000, 25.000000) matrix(1 0 0 1 605 128)">dave.lauper</text><text class="st13 st1 st14" transform="translate(0.000000, 25.000000) matrix(1 0 0 1 521 128)">9baa16</text><text class="st13 st1 st14" transform="translate(0.000000, 25.000000) matrix(1 0 0 1 460 128)">1</text></g><g id="header"><text class="st13 st1 st14" transform="matrix(1 0 0 1 605 128)">last pushed</text><text class="st13 st1 st14" transform="matrix(1 0 0 1 521 128)">id</text><text class="st13 st1 st14" transform="matrix(1 0 0 1 460 128)">tag</text></g></g><g id="repo" transform="translate(0.000000, 26.000000)"><rect width="228" height="27" x="460" y="115" class="st9"/><text class="st5 st1 st14" transform="matrix(1 0 0 1 469 133)">dev/nginx</text></g><path d="M469.5,194.5h208" class="st15"/><rect width="228" height="27" x="460" y="115" class="st4"/><text class="st5 st1 st14" transform="matrix(1 0 0 1 469 133)">docker trusted registry</text><text class="st0 st11 st6" transform="matrix(1 0 0 1 74 323)">dev/ngnix:1</text><path id="Rectangle-2_1_" d="M241,303h167c1.1,0,2,0.6,2,1.3v65.3c0,0.7-0.9,1.3-2,1.3H241c-1.1,0-2-0.6-2-1.3v-65.3	C239,303.6,239.9,303,241,303z" class="st7"/><path d="M325.5,257.5V308" class="st8"/><circle cx="149.3" cy="259.3" r="4.2" class="st4"/><circle cx="325.3" cy="259.3" r="4.2" class="st4"/><circle cx="411.3" cy="132.3" r="4.2" class="st4"/></svg>