<svg xmlns="http://www.w3.org/2000/svg" xmlns:xlink="http://www.w3.org/1999/xlink" id="Layer_1" x="0" y="0" enable-background="new 0 0 740 310" version="1.1" viewBox="0 0 740 310" xml:space="preserve"><style type="text/css">.st0{fill:#fff}.st1{fill:#e0e4e7}.st2{font-family:&apos;OpenSans&apos;}.st3{font-size:10px}.st4{fill:#82949e}.st5{fill:#439fd1}.st5,.st6,.st7{fill-rule:evenodd;clip-rule:evenodd}.st6{fill:#00b6b5}.st7{fill:#445d6e}.st8{font-size:8px}.st9{fill:none;stroke:#445d6e;stroke-width:2}.st10{fill-rule:evenodd;clip-rule:evenodd;fill:#ffb463}.st11,.st12,.st13{fill:none;stroke-width:2}.st11{stroke:#445d6e;stroke-linecap:round;stroke-linejoin:round}.st12{stroke:#f7f8f9}.st13{stroke:#e0e4e7;stroke-dasharray:5,5,5,5}.st14{fill-rule:evenodd;clip-rule:evenodd;fill:#82949e}</style><rect width="740" height="310" class="st0"/><title>interlock-deploy-production-1</title><desc>Created with Sketch.</desc><g id="interlock-deploy-production-1"><g id="all" transform="translate(9.000000, 10.000000)"><text class="st1 st2 st3" transform="matrix(1 0 0 1 7 281)">Docker swarm managed with UCP</text><g id="nodes" transform="translate(8.000000, 100.000000)"><g id="workers" transform="translate(357.000000, 0.000000)"><g id="node" transform="translate(242.000000, 0.000000)"><text class="st4 st2 st3" transform="matrix(1 0 0 1 37.313 149)">node-6</text><g id="ucp" transform="translate(1.000000, 112.000000)"><path id="Rectangle-138" d="M2,0h102c1.1,0,2,0.9,2,2v18c0,1.1-0.9,2-2,2H2c-1.1,0-2-0.9-2-2V2C0,0.9,0.9,0,2,0z" class="st5"/><text class="st0 st2 st3" transform="matrix(1 0 0 1 43.6953 15)">UCP</text></g><g id="wordpress-copy"><path d="M2,0h102c1.1,0,2,0.9,2,2v18c0,1.1-0.9,2-2,2H2c-1.1,0-2-0.9-2-2V2C0,0.9,0.9,0,2,0z" class="st6" transform="translate(1.000000, 89.000000)"/><text class="st0 st2 st3" transform="translate(1.000000, 89.000000) matrix(1 0 0 1 11.3442 15)">interlock-proxy:80</text></g><g id="label"><g id="node-label"><path id="Rectangle-127" d="M0,2c0-1.1,0.9-2,2-2h69v10.6c0,5.9-4.8,10.6-10.6,10.6H0V2z" class="st7"/><text class="st0 st2 st8" transform="matrix(1 0 0 1 6 14)">worker node</text></g></g><path id="node-border" d="M2,0h104c1.1,0,2,0.9,2,2v131c0,1.1-0.9,2-2,2H2c-1.1,0-2-0.9-2-2V2C0,0.9,0.9,0,2,0z" class="st9"/></g><g transform="translate(128.000000, 0.000000)"><text class="st4 st2 st3" transform="matrix(1 0 0 1 37.313 149)">node-5</text><g><path d="M2,0h102c1.1,0,2,0.9,2,2v18c0,1.1-0.9,2-2,2H2c-1.1,0-2-0.9-2-2V2C0,0.9,0.9,0,2,0z" class="st5" transform="translate(1.000000, 112.000000)"/><text class="st0 st2 st3" transform="translate(1.000000, 112.000000) matrix(1 0 0 1 43.6953 15)">UCP</text></g><g id="wordpress"><path d="M2,0h102c1.1,0,2,0.9,2,2v18c0,1.1-0.9,2-2,2H2c-1.1,0-2-0.9-2-2V2C0,0.9,0.9,0,2,0z" class="st6" transform="translate(1.000000, 89.000000)"/><text class="st0 st2 st3" transform="translate(1.000000, 89.000000) matrix(1 0 0 1 10.8442 15)">interlock-proxy:80</text></g><g><text class="st0 st2 st3" transform="translate(12.000000, 70.000000) matrix(1 0 0 1 0.3442 11)">interlock-proxy:80</text></g><g><g><path d="M0,2c0-1.1,0.9-2,2-2h69v10.6c0,5.9-4.8,10.6-10.6,10.6H0V2z" class="st7"/><text class="st0 st2 st8" transform="matrix(1 0 0 1 6 14)">worker node</text></g></g><path d="M2,0h104c1.1,0,2,0.9,2,2v131c0,1.1-0.9,2-2,2H2c-1.1,0-2-0.9-2-2V2C0,0.9,0.9,0,2,0z" class="st9"/></g><g id="node-copy-3"><text class="st4 st2 st3" transform="matrix(1 0 0 1 37.313 149)">node-4</text><g><path d="M2,0h102c1.1,0,2,0.9,2,2v18c0,1.1-0.9,2-2,2H2c-1.1,0-2-0.9-2-2V2C0,0.9,0.9,0,2,0z" class="st5" transform="translate(1.000000, 112.000000)"/><text class="st0 st2 st3" transform="translate(1.000000, 112.000000) matrix(1 0 0 1 43.6953 15)">UCP</text></g><g><path d="M2,0h102c1.1,0,2,0.9,2,2v18c0,1.1-0.9,2-2,2H2c-1.1,0-2-0.9-2-2V2C0,0.9,0.9,0,2,0z" class="st6" transform="translate(1.000000, 89.000000)"/><text class="st0 st2 st3" transform="translate(1.000000, 89.000000) matrix(1 0 0 1 8.854 15)">interlock-extension</text></g><g id="wordpress-copy-2"><path d="M2,0h102c1.1,0,2,0.9,2,2v18c0,1.1-0.9,2-2,2H2c-1.1,0-2-0.9-2-2V2C0,0.9,0.9,0,2,0z" class="st10" transform="translate(1.000000, 66.000000)"/><text class="st0 st2 st3" transform="translate(1.000000, 66.000000) matrix(1 0 0 1 16.0391 15)">wordpress:8000</text></g><g><g><path d="M0,2c0-1.1,0.9-2,2-2h69v10.6c0,5.9-4.8,10.6-10.6,10.6H0V2z" class="st7"/><text class="st0 st2 st8" transform="matrix(1 0 0 1 6 14)">worker node</text></g></g><path d="M2,0h104c1.1,0,2,0.9,2,2v131c0,1.1-0.9,2-2,2H2c-1.1,0-2-0.9-2-2V2C0,0.9,0.9,0,2,0z" class="st9"/></g></g><g id="managers"><g><text class="st4 st2 st3" transform="translate(228.000000, 0.000000) matrix(1 0 0 1 37.313 149)">node-3</text><g><path d="M2,0h102c1.1,0,2,0.9,2,2v18c0,1.1-0.9,2-2,2H2c-1.1,0-2-0.9-2-2V2C0,0.9,0.9,0,2,0z" class="st5" transform="translate(228.000000, 0.000000) translate(1.000000, 112.000000)"/><text class="st0 st2 st3" transform="translate(228.000000, 0.000000) translate(1.000000, 112.000000) matrix(1 0 0 1 43.6953 15)">UCP</text></g><g><g><path d="M0,2c0-1.1,0.9-2,2-2h69v10.6c0,5.9-4.8,10.6-10.6,10.6H0V2z" class="st7" transform="translate(228.000000, 0.000000)"/><text class="st0 st2 st8" transform="translate(228.000000, 0.000000) matrix(1 0 0 1 6 14)">manager node</text></g></g><path d="M2,0h104c1.1,0,2,0.9,2,2v131c0,1.1-0.9,2-2,2H2c-1.1,0-2-0.9-2-2V2C0,0.9,0.9,0,2,0z" class="st9" transform="translate(228.000000, 0.000000)"/></g><g id="node-copy"><text class="st4 st2 st3" transform="translate(114.000000, 0.000000) matrix(1 0 0 1 37.313 149)">node-2</text><g><path d="M2,0h102c1.1,0,2,0.9,2,2v18c0,1.1-0.9,2-2,2H2c-1.1,0-2-0.9-2-2V2C0,0.9,0.9,0,2,0z" class="st5" transform="translate(114.000000, 0.000000) translate(1.000000, 112.000000)"/><text class="st0 st2 st3" transform="translate(114.000000, 0.000000) translate(1.000000, 112.000000) matrix(1 0 0 1 43.6953 15)">UCP</text></g><g><g><path d="M0,2c0-1.1,0.9-2,2-2h69v10.6c0,5.9-4.8,10.6-10.6,10.6H0V2z" class="st7" transform="translate(114.000000, 0.000000)"/><text class="st0 st2 st8" transform="translate(114.000000, 0.000000) matrix(1 0 0 1 6 14)">manager node</text></g></g><path d="M2,0h104c1.1,0,2,0.9,2,2v131c0,1.1-0.9,2-2,2H2c-1.1,0-2-0.9-2-2V2C0,0.9,0.9,0,2,0z" class="st9" transform="translate(114.000000, 0.000000)"/></g><g id="node-copy-2"><text class="st4 st2 st3" transform="matrix(1 0 0 1 37.313 149)">node-1</text><g><path d="M2,0h102c1.1,0,2,0.9,2,2v18c0,1.1-0.9,2-2,2H2c-1.1,0-2-0.9-2-2V2C0,0.9,0.9,0,2,0z" class="st5" transform="translate(1.000000, 112.000000)"/><text class="st0 st2 st3" transform="translate(1.000000, 112.000000) matrix(1 0 0 1 43.6953 15)">UCP</text></g><g><path d="M2,0h102c1.1,0,2,0.9,2,2v18c0,1.1-0.9,2-2,2H2c-1.1,0-2-0.9-2-2V2C0,0.9,0.9,0,2,0z" class="st6" transform="translate(1.000000, 89.000000)"/><text class="st0 st2 st3" transform="translate(1.000000, 89.000000) matrix(1 0 0 1 22.6436 15)">ucp-interlock</text></g><g><g><path d="M0,2c0-1.1,0.9-2,2-2h69v10.6c0,5.9-4.8,10.6-10.6,10.6H0V2z" class="st7"/><text class="st0 st2 st8" transform="matrix(1 0 0 1 6 14)">manager node</text></g></g><path d="M2,0h104c1.1,0,2,0.9,2,2v131c0,1.1-0.9,2-2,2H2c-1.1,0-2-0.9-2-2V2C0,0.9,0.9,0,2,0z" class="st9"/></g></g></g><g id="load-balancer" transform="translate(492.000000, 55.000000)"><g id="L7"><path d="M2,0h220c1.1,0,2,0.9,2,2v18c0,1.1-0.9,2-2,2H2c-1.1,0-2-0.9-2-2V2C0,0.9,0.9,0,2,0z" class="st7"/><text class="st0 st2 st3" transform="matrix(1 0 0 1 68.438 15)">your load balancer</text></g><g id="arrow" transform="translate(170.000000, 33.000000) scale(1, -1) rotate(-90.000000) translate(-170.000000, -33.000000) translate(158.000000, 29.000000)"><path id="Line" d="M2,4h22" class="st11"/><g id="Oval"><g><circle id="path-1" cx="4" cy="4" r="4" class="st7"/></g><circle cx="4" cy="4" r="5" class="st12"/></g></g><g><path d="M2,4h22" class="st11" transform="translate(56.000000, 33.000000) scale(1, -1) rotate(-90.000000) translate(-56.000000, -33.000000) translate(44.000000, 29.000000)"/><g transform="translate(56.000000, 33.000000) scale(1, -1) rotate(-90.000000) translate(-56.000000, -33.000000) translate(44.000000, 29.000000)"><g><circle id="path-2" cx="4" cy="4" r="4" class="st7"/></g><circle cx="4" cy="4" r="5" class="st12"/></g></g></g><path id="group" d="M0,89c0-1.1,0.9-2,2-2h719c1.1,0,2,0.9,2,2v200c0,1.1-0.9,2-2,2H2c-1.1,0-2-0.9-2-2V89z" class="st13"/><g id="user" transform="translate(532.000000, 0.000000)"><text class="st4 st2 st3" transform="matrix(1 0 0 1 0.1294 42)">http://wordpress.example.org</text><path id="Shape" d="M73,13c3.6,0,6.5-2.9,6.5-6.5C79.5,2.9,76.6,0,73,0s-6.5,2.9-6.5,6.5C66.5,10.1,69.4,13,73,13 L73,13z M73,16.2c-4.3,0-13,2.2-13,6.5V26h26v-3.2C86,18.4,77.3,16.2,73,16.2L73,16.2z" class="st14"/></g></g></g></svg>