<svg xmlns="http://www.w3.org/2000/svg" xmlns:xlink="http://www.w3.org/1999/xlink" id="Layer_1" x="0" y="0" enable-background="new 0 0 740 250" version="1.1" viewBox="0 0 740 250" xml:space="preserve"><style type="text/css">.st0{fill:#fff}.st1{fill-rule:evenodd;clip-rule:evenodd;fill:#82949e}.st2{font-family:&apos;OpenSans&apos;}.st3{font-size:14px}.st4,.st5{fill-rule:evenodd;clip-rule:evenodd;fill:#1488c6}.st5{fill:#00b6b5}.st6{fill:#82949e}.st7{font-size:12px}.st8{fill:none;stroke:#82949e;stroke-width:2;stroke-linecap:round;stroke-linejoin:round}.st9{fill-rule:evenodd;clip-rule:evenodd;fill:#8f9ea8}</style><rect width="740" height="250" class="st0"/><title>architecture-1</title><desc>Created with Sketch.</desc><g id="architecture-diagrams"><g id="architecture-1"><g id="Group" transform="translate(28.000000, 51.000000)"><g id="stack"><g id="servers" transform="translate(0.000000, 114.000000)"><g id="cloud"><path id="Rectangle-138" d="M2,0h168c1.1,0,2,0.9,2,2v30c0,1.1-0.9,2-2,2H2c-1.1,0-2-0.9-2-2V2C0,0.9,0.9,0,2,0z" class="st1"/><text class="st0 st2 st3" transform="matrix(1 0 0 1 42.5098 23)">cloud servers</text></g><g id="virtual"><path d="M2,0h168c1.1,0,2,0.9,2,2v30c0,1.1-0.9,2-2,2H2c-1.1,0-2-0.9-2-2V2C0,0.9,0.9,0,2,0z" class="st1" transform="translate(176.000000, 0.000000)"/><text class="st0 st2 st3" transform="translate(176.000000, 0.000000) matrix(1 0 0 1 39.8608 23)">virtual servers</text></g><g id="physical"><path d="M2,0h168c1.1,0,2,0.9,2,2v30c0,1.1-0.9,2-2,2H2c-1.1,0-2-0.9-2-2V2C0,0.9,0.9,0,2,0z" class="st1" transform="translate(352.000000, 0.000000)"/><text class="st0 st2 st3" transform="translate(352.000000, 0.000000) matrix(1 0 0 1 34.2075 23)">physical servers</text></g></g><g id="docker"><path d="M2,0h520c1.1,0,2,0.9,2,2v30c0,1.1-0.9,2-2,2H2c-1.1,0-2-0.9-2-2V2C0,0.9,0.9,0,2,0z" class="st4" transform="translate(0.000000, 76.000000)"/><text class="st0 st2 st3" transform="translate(0.000000, 76.000000) matrix(1 0 0 1 225.4644 23)">Docker EE Engine</text></g><g id="ucp"><path d="M2,0h520c1.1,0,2,0.9,2,2v30c0,1.1-0.9,2-2,2H2c-1.1,0-2-0.9-2-2V2C0,0.9,0.9,0,2,0z" class="st4" transform="translate(0.000000, 38.000000)"/><text class="st0 st2 st3" transform="translate(0.000000, 38.000000) matrix(1 0 0 1 185.5366 23)">Universal Control Plane</text></g><g id="dtr"><path d="M2,0h168c1.1,0,2,0.9,2,2v30c0,1.1-0.9,2-2,2H2c-1.1,0-2-0.9-2-2V2C0,0.9,0.9,0,2,0z" class="st4"/><text class="st0 st2 st3" transform="matrix(1 0 0 1 8.1318 23)">Docker Trusted Registry</text></g><g id="your-apps"><path d="M2,0h344c1.1,0,2,0.9,2,2v30c0,1.1-0.9,2-2,2H2c-1.1,0-2-0.9-2-2V2C0,0.9,0.9,0,2,0z" class="st5" transform="translate(176.000000, 0.000000)"/><text class="st0 st2 st3" transform="translate(176.000000, 0.000000) matrix(1 0 0 1 118.4282 23)">your applications</text></g></g><g id="user" transform="translate(528.000000, 44.000000)"><g transform="translate(44.000000, 0.000000)"><text class="st6 st2 st7" transform="matrix(1 0 0 1 0 39)">deploy and manage</text><path id="Shape" d="M56,13c3.6,0,6.5-2.9,6.5-6.5C62.5,2.9,59.6,0,56,0s-6.5,2.9-6.5,6.5C49.5,10.1,52.4,13,56,13 L56,13z M56,16.2c-4.3,0-13,2.2-13,6.5V26h26v-3.2C69,18.4,60.3,16.2,56,16.2L56,16.2z" class="st1"/></g><g id="arrow" transform="translate(0.000000, 8.000000)"><path id="Line" d="M1.5,5H60" class="st8"/><circle id="Oval" cx="5" cy="5" r="5" class="st9"/></g></g></g></g></g></svg>