<svg xmlns="http://www.w3.org/2000/svg" xmlns:xlink="http://www.w3.org/1999/xlink" id="Layer_1" x="0" y="0" enable-background="new 0 0 740 350" version="1.1" viewBox="0 0 740 350" xml:space="preserve"><style type="text/css">.st0{fill:#fff}.st1{fill:#e0e4e7}.st2{font-family:&apos;OpenSans&apos;}.st3{font-size:10px}.st4{fill:none;stroke:#e0e4e7;stroke-width:2;stroke-dasharray:5,5,5,5}.st5{fill-rule:evenodd;clip-rule:evenodd;fill:#445d6e}.st6{fill:none;stroke:#445d6e;stroke-width:2;stroke-linecap:round;stroke-linejoin:round}.st7{fill:#fff;filter:url(#Adobe_OpacityMaskFilter)}.st8{mask:url(#mask-2_1_)}.st9{fill:none;stroke:#f7f8f9;stroke-width:4}.st10{fill:#fff;filter:url(#Adobe_OpacityMaskFilter_1_)}.st11{mask:url(#mask-4_1_)}.st12{fill:#fff;filter:url(#Adobe_OpacityMaskFilter_2_)}.st13{mask:url(#mask-6_1_)}.st14{fill-rule:evenodd;clip-rule:evenodd;fill:#e0e4e7}.st15{font-size:8px}.st16,.st17{fill-rule:evenodd;clip-rule:evenodd;fill:#a1cfe8}.st17{fill:#ffe1c0}.st18{fill:none;stroke:#e0e4e7;stroke-width:2}.st19,.st20{fill-rule:evenodd;clip-rule:evenodd;fill:#1488c6}.st20{fill:#00b6b5}.st21{fill:none;stroke:#445d6e;stroke-width:2}.st22{fill:#82949e}.st23{font-size:12px}.st24{fill-rule:evenodd;clip-rule:evenodd;fill:#82949e}</style><rect width="740" height="350" class="st0"/><title>architecture-3</title><desc>Created with Sketch.</desc><g id="architecture-diagrams"><g id="architecture-3"><g id="ddc" transform="translate(169.000000, 56.000000)"><g id="swarm-group" transform="translate(0.000000, 42.000000)"><text class="st1 st2 st3" transform="matrix(1 0 0 1 9.025 236.0095)">Docker swarm</text><path id="group" d="M2,0h397c1.1,0,2,0.9,2,2v241c0,1.1-0.9,2-2,2H2c-1.1,0-2-0.9-2-2V2C0,0.9,0.9,0,2,0z" class="st4"/></g><g id="load-balancer" transform="translate(47.000000, 0.000000)"><g id="main"><path id="Rectangle-138" d="M2,0h305c1.1,0,2,0.9,2,2v18c0,1.1-0.9,2-2,2H2c-1.1,0-2-0.9-2-2V2C0,0.9,0.9,0,2,0z" class="st5"/><text class="st0 st2 st3" transform="matrix(1 0 0 1 111.438 15)">your load balancer</text></g><g id="arrows" transform="translate(43.000000, 21.000000)"><g id="arrow-copy-3" transform="translate(218.500000, 17.000000) scale(1, -1) rotate(-90.000000) translate(-218.500000, -17.000000) translate(202.000000, 13.000000)"><path id="Line" d="M2,4h31" class="st6"/><defs><filter id="Adobe_OpacityMaskFilter" filterUnits="userSpaceOnUse"><feColorMatrix type="matrix" values="1 0 0 0 0 0 1 0 0 0 0 0 1 0 0 0 0 0 1 0"/></filter></defs><mask id="mask-2_1_" maskUnits="userSpaceOnUse"><rect width="12" height="-12" x="-79.5" y="-463.5" class="st7" transform="matrix(2.535182e-06 1 -1 2.535182e-06 -542.9998 -395.9988)"/><g><circle id="path-1_1_" cx="-73.5" cy="-469.5" r="4"/></g></mask><g id="Oval" class="st8"><g><circle cx="4" cy="4" r="4" class="st5"/></g><g><circle cx="4" cy="4" r="4" class="st9"/></g></g></g><g id="arrow-copy" transform="translate(111.500000, 17.000000) scale(1, -1) rotate(-90.000000) translate(-111.500000, -17.000000) translate(95.000000, 13.000000)"><path d="M2,4h31" class="st6"/><defs><filter id="Adobe_OpacityMaskFilter_1_" filterUnits="userSpaceOnUse"><feColorMatrix type="matrix" values="1 0 0 0 0 0 1 0 0 0 0 0 1 0 0 0 0 0 1 0"/></filter></defs><mask id="mask-4_1_" maskUnits="userSpaceOnUse"><rect width="12" height="-12" x="-79.5" y="-356.5" class="st10" transform="matrix(2.535182e-06 1 -1 2.535182e-06 -435.9998 -288.9991)"/><g><circle id="path-3_1_" cx="-73.5" cy="-362.5" r="4"/></g></mask><g class="st11"><g><circle cx="4" cy="4" r="4" class="st5"/></g><g><circle cx="4" cy="4" r="4" class="st9"/></g></g></g><g id="arrow-copy-2" transform="translate(4.500000, 17.000000) scale(1, -1) rotate(-90.000000) translate(-4.500000, -17.000000) translate(-12.000000, 13.000000)"><path d="M2,4h31" class="st6"/><defs><filter id="Adobe_OpacityMaskFilter_2_" filterUnits="userSpaceOnUse"><feColorMatrix type="matrix" values="1 0 0 0 0 0 1 0 0 0 0 0 1 0 0 0 0 0 1 0"/></filter></defs><mask id="mask-6_1_" maskUnits="userSpaceOnUse"><rect width="12" height="-12" x="-79.5" y="-249.5" class="st12" transform="matrix(2.535182e-06 1 -1 2.535182e-06 -328.9998 -181.9994)"/><g><circle id="path-5_1_" cx="-73.5" cy="-255.5" r="4"/></g></mask><g class="st13"><g><circle cx="4" cy="4" r="4" class="st5"/></g><g><circle cx="4" cy="4" r="4" class="st9"/></g></g></g></g></g><g id="swam" transform="translate(46.000000, 54.000000)"><g id="nodes"><g id="workers" transform="translate(53.000000, 118.000000)"><g id="node-1"><g id="node"><g id="node-label"><path id="Rectangle-127" d="M2,0h67c1.1,0,2,0.9,2,2v17.3c0,1.1-0.9,2-2,2H2c-1.1,0-2-0.9-2-2V2 C0,0.9,0.9,0,2,0z" class="st14"/><text class="st0 st2 st15" transform="matrix(1 0 0 1 6 14)">worker node</text></g></g><g id="engine"><path d="M2,0h91c1.1,0,2,0.9,2,2v18c0,1.1-0.9,2-2,2H2c-1.1,0-2-0.9-2-2V2C0,0.9,0.9,0,2,0z" class="st16" transform="translate(1.000000, 79.000000)"/><text class="st0 st2 st3" transform="translate(1.000000, 79.000000) matrix(1 0 0 1 7.2603 15)">Docker EE Engine</text></g><g id="ucp"><path d="M2,0h91c1.1,0,2,0.9,2,2v18c0,1.1-0.9,2-2,2H2c-1.1,0-2-0.9-2-2V2C0,0.9,0.9,0,2,0z" class="st16" transform="translate(1.000000, 56.000000)"/><text class="st0 st2 st3" transform="translate(1.000000, 56.000000) matrix(1 0 0 1 23.7373 15)">UCP agent</text></g><g id="app"><path d="M2,0h91c1.1,0,2,0.9,2,2v18c0,1.1-0.9,2-2,2H2c-1.1,0-2-0.9-2-2V2C0,0.9,0.9,0,2,0z" class="st17" transform="translate(1.000000, 33.000000)"/><text class="st0 st2 st3" transform="translate(1.000000, 33.000000) matrix(1 0 0 1 20.4756 15)">UCP worker</text></g><path id="node-border" d="M2,0h93c1.1,0,2,0.9,2,2v98c0,1.1-0.9,2-2,2H2c-1.1,0-2-0.9-2-2V2C0,0.9,0.9,0,2,0z" class="st18"/></g><g id="node-1-copy-3"><g><g><path d="M2,0h67c1.1,0,2,0.9,2,2v17.3c0,1.1-0.9,2-2,2H2c-1.1,0-2-0.9-2-2V2C0,0.9,0.9,0,2,0z" class="st14" transform="translate(107.000000, 0.000000)"/><text class="st0 st2 st15" transform="translate(107.000000, 0.000000) matrix(1 0 0 1 6 14)">worker node</text></g></g><g><path d="M2,0h91c1.1,0,2,0.9,2,2v18c0,1.1-0.9,2-2,2H2c-1.1,0-2-0.9-2-2V2C0,0.9,0.9,0,2,0z" class="st16" transform="translate(107.000000, 0.000000) translate(1.000000, 79.000000)"/><text class="st0 st2 st3" transform="translate(107.000000, 0.000000) translate(1.000000, 79.000000) matrix(1 0 0 1 7.2603 15)">Docker EE Engine</text></g><g><path d="M2,0h91c1.1,0,2,0.9,2,2v18c0,1.1-0.9,2-2,2H2c-1.1,0-2-0.9-2-2V2C0,0.9,0.9,0,2,0z" class="st16" transform="translate(107.000000, 0.000000) translate(1.000000, 56.000000)"/><text class="st0 st2 st3" transform="translate(107.000000, 0.000000) translate(1.000000, 56.000000) matrix(1 0 0 1 23.7373 15)">UCP agent</text></g><g><path d="M2,0h91c1.1,0,2,0.9,2,2v18c0,1.1-0.9,2-2,2H2c-1.1,0-2-0.9-2-2V2C0,0.9,0.9,0,2,0z" class="st17" transform="translate(107.000000, 0.000000) translate(1.000000, 33.000000)"/><text class="st0 st2 st3" transform="translate(107.000000, 0.000000) translate(1.000000, 33.000000) matrix(1 0 0 1 20.4756 15)">UCP worker</text></g><path d="M2,0h93c1.1,0,2,0.9,2,2v98c0,1.1-0.9,2-2,2H2c-1.1,0-2-0.9-2-2V2C0,0.9,0.9,0,2,0z" class="st18" transform="translate(107.000000, 0.000000)"/></g></g><g id="managers"><g id="node-1-copy-2"><g><g><path d="M2,0h67c1.1,0,2,0.9,2,2v17.3c0,1.1-0.9,2-2,2H2c-1.1,0-2-0.9-2-2V2C0,0.9,0.9,0,2,0z" class="st5" transform="translate(214.000000, 0.000000)"/><text class="st0 st2 st15" transform="translate(214.000000, 0.000000) matrix(1 0 0 1 6 14)">manager node</text></g></g><g><path d="M2,0h91c1.1,0,2,0.9,2,2v18c0,1.1-0.9,2-2,2H2c-1.1,0-2-0.9-2-2V2C0,0.9,0.9,0,2,0z" class="st19" transform="translate(214.000000, 0.000000) translate(1.000000, 79.000000)"/><text class="st0 st2 st3" transform="translate(214.000000, 0.000000) translate(1.000000, 79.000000) matrix(1 0 0 1 7.2603 15)">Docker EE Engine</text></g><g><path d="M2,0h91c1.1,0,2,0.9,2,2v18c0,1.1-0.9,2-2,2H2c-1.1,0-2-0.9-2-2V2C0,0.9,0.9,0,2,0z" class="st19" transform="translate(214.000000, 0.000000) translate(1.000000, 56.000000)"/><text class="st0 st2 st3" transform="translate(214.000000, 0.000000) translate(1.000000, 56.000000) matrix(1 0 0 1 23.7373 15)">UCP agent</text></g><g><path d="M2,0h91c1.1,0,2,0.9,2,2v18c0,1.1-0.9,2-2,2H2c-1.1,0-2-0.9-2-2V2C0,0.9,0.9,0,2,0z" class="st20" transform="translate(214.000000, 0.000000) translate(1.000000, 33.000000)"/><text class="st0 st2 st3" transform="translate(214.000000, 0.000000) translate(1.000000, 33.000000) matrix(1 0 0 1 16.0298 15)">UCP manager</text></g><path d="M2,0h93c1.1,0,2,0.9,2,2v98c0,1.1-0.9,2-2,2H2c-1.1,0-2-0.9-2-2V2C0,0.9,0.9,0,2,0z" class="st21" transform="translate(214.000000, 0.000000)"/></g><g id="node-1-copy"><g><g><path d="M2,0h67c1.1,0,2,0.9,2,2v17.3c0,1.1-0.9,2-2,2H2c-1.1,0-2-0.9-2-2V2C0,0.9,0.9,0,2,0z" class="st5" transform="translate(107.000000, 0.000000)"/><text class="st0 st2 st15" transform="translate(107.000000, 0.000000) matrix(1 0 0 1 6 14)">manager node</text></g></g><g><path d="M2,0h91c1.1,0,2,0.9,2,2v18c0,1.1-0.9,2-2,2H2c-1.1,0-2-0.9-2-2V2C0,0.9,0.9,0,2,0z" class="st19" transform="translate(107.000000, 0.000000) translate(1.000000, 79.000000)"/><text class="st0 st2 st3" transform="translate(107.000000, 0.000000) translate(1.000000, 79.000000) matrix(1 0 0 1 7.2603 15)">Docker EE Engine</text></g><g><path d="M2,0h91c1.1,0,2,0.9,2,2v18c0,1.1-0.9,2-2,2H2c-1.1,0-2-0.9-2-2V2C0,0.9,0.9,0,2,0z" class="st19" transform="translate(107.000000, 0.000000) translate(1.000000, 56.000000)"/><text class="st0 st2 st3" transform="translate(107.000000, 0.000000) translate(1.000000, 56.000000) matrix(1 0 0 1 23.7373 15)">UCP agent</text></g><g><path d="M2,0h91c1.1,0,2,0.9,2,2v18c0,1.1-0.9,2-2,2H2c-1.1,0-2-0.9-2-2V2C0,0.9,0.9,0,2,0z" class="st20" transform="translate(107.000000, 0.000000) translate(1.000000, 33.000000)"/><text class="st0 st2 st3" transform="translate(107.000000, 0.000000) translate(1.000000, 33.000000) matrix(1 0 0 1 16.0298 15)">UCP manager</text></g><path d="M2,0h93c1.1,0,2,0.9,2,2v98c0,1.1-0.9,2-2,2H2c-1.1,0-2-0.9-2-2V2C0,0.9,0.9,0,2,0z" class="st21" transform="translate(107.000000, 0.000000)"/></g><g><g><g><path d="M2,0h67c1.1,0,2,0.9,2,2v17.3c0,1.1-0.9,2-2,2H2c-1.1,0-2-0.9-2-2V2C0,0.9,0.9,0,2,0z" class="st5"/><text class="st0 st2 st15" transform="matrix(1 0 0 1 6 14)">manager node</text></g></g><g><path d="M2,0h91c1.1,0,2,0.9,2,2v18c0,1.1-0.9,2-2,2H2c-1.1,0-2-0.9-2-2V2C0,0.9,0.9,0,2,0z" class="st19" transform="translate(1.000000, 79.000000)"/><text class="st0 st2 st3" transform="translate(1.000000, 79.000000) matrix(1 0 0 1 7.2603 15)">Docker EE Engine</text></g><g><path d="M2,0h91c1.1,0,2,0.9,2,2v18c0,1.1-0.9,2-2,2H2c-1.1,0-2-0.9-2-2V2C0,0.9,0.9,0,2,0z" class="st19" transform="translate(1.000000, 56.000000)"/><text class="st0 st2 st3" transform="translate(1.000000, 56.000000) matrix(1 0 0 1 23.7373 15)">UCP agent</text></g><g><path d="M2,0h91c1.1,0,2,0.9,2,2v18c0,1.1-0.9,2-2,2H2c-1.1,0-2-0.9-2-2V2C0,0.9,0.9,0,2,0z" class="st20" transform="translate(1.000000, 33.000000)"/><text class="st0 st2 st3" transform="translate(1.000000, 33.000000) matrix(1 0 0 1 16.0298 15)">UCP manager</text></g><path d="M2,0h93c1.1,0,2,0.9,2,2v98c0,1.1-0.9,2-2,2H2c-1.1,0-2-0.9-2-2V2C0,0.9,0.9,0,2,0z" class="st21"/></g></g></g></g></g><g id="user" transform="translate(337.000000, 5.000000)"><g><text class="st22 st2 st23" transform="matrix(1 0 0 1 7 41)">UI</text><path id="Shape" d="M13,13c3.6,0,6.5-2.9,6.5-6.5C19.5,2.9,16.6,0,13,0S6.5,2.9,6.5,6.5C6.5,10.1,9.4,13,13,13 L13,13z M13,16.2c-4.3,0-13,2.2-13,6.5V26h26v-3.2C26,18.4,17.3,16.2,13,16.2L13,16.2z" class="st24"/></g><g id="user-copy"><text class="st22 st2 st23" transform="translate(42.000000, 0.000000) matrix(1 0 0 1 4 41)">CLI</text><path d="M13,13c3.6,0,6.5-2.9,6.5-6.5C19.5,2.9,16.6,0,13,0S6.5,2.9,6.5,6.5C6.5,10.1,9.4,13,13,13L13,13z M13,16.2c-4.3,0-13,2.2-13,6.5V26h26v-3.2C26,18.4,17.3,16.2,13,16.2L13,16.2z" class="st24" transform="translate(42.000000, 0.000000)"/></g></g></g></g></svg>