<svg xmlns="http://www.w3.org/2000/svg" xmlns:xlink="http://www.w3.org/1999/xlink" id="Layer_1" x="0" y="0" enable-background="new 0 0 740 321" version="1.1" viewBox="0 0 740 321" xml:space="preserve"><style type="text/css">.st0{fill:#fff}.st1{fill:#e0e4e7}.st2{font-family:&apos;OpenSans&apos;}.st3{font-size:10px}.st4{fill:#439fd1}.st4,.st5,.st6{fill-rule:evenodd;clip-rule:evenodd}.st5{fill:#00b6b5}.st6{fill:#445d6e}.st7{font-size:8px}.st8{fill:none;stroke:#445d6e;stroke-width:2}.st9{fill-rule:evenodd;clip-rule:evenodd;fill:#ffb463}.st10,.st11,.st12{fill:none;stroke-width:2}.st10{stroke:#445d6e;stroke-linecap:round;stroke-linejoin:round}.st11{stroke:#f7f8f9}.st12{stroke:#e0e4e7;stroke-dasharray:5,5,5,5}.st13,.st14{fill:#82949e}.st14{fill-rule:evenodd;clip-rule:evenodd}.st15{fill:none;stroke:#e0e4e7;stroke-width:2;stroke-linecap:round;stroke-linejoin:round}</style><rect width="740" height="321" class="st0"/><title>interlock-architecture-1</title><desc>Created with Sketch.</desc><g id="interlock-architecture-1"><g id="all" transform="translate(6.000000, 5.000000)"><text class="st1 st2 st3" transform="matrix(1 0 0 1 8 297)">Docker swarm managed with UCP</text><g id="nodes" transform="translate(133.000000, 100.000000)"><g id="workers" transform="translate(122.000000, 0.000000)"><g id="node-4" transform="translate(248.000000, 0.000000)"><g id="ucp" transform="translate(1.000000, 112.000000)"><path id="Rectangle-138" d="M2,0h102c1.1,0,2,0.9,2,2v18c0,1.1-0.9,2-2,2H2c-1.1,0-2-0.9-2-2V2C0,0.9,0.9,0,2,0z" class="st4"/><text class="st0 st2 st3" transform="matrix(1 0 0 1 43.6953 15)">UCP</text></g><g id="wordpress-copy"><path d="M2,0h102c1.1,0,2,0.9,2,2v18c0,1.1-0.9,2-2,2H2c-1.1,0-2-0.9-2-2V2C0,0.9,0.9,0,2,0z" class="st5" transform="translate(1.000000, 89.000000)"/><text class="st0 st2 st3" transform="translate(1.000000, 89.000000) matrix(1 0 0 1 11.3442 15)">interlock-proxy:80</text></g><g id="label"><g id="node-label"><path id="Rectangle-127" d="M0,2c0-1.1,0.9-2,2-2h69v10.6c0,5.9-4.8,10.6-10.6,10.6H0V2z" class="st6"/><text class="st0 st2 st7" transform="matrix(1 0 0 1 6 14)">worker node</text></g></g><path id="node-border" d="M2,0h104c1.1,0,2,0.9,2,2v131c0,1.1-0.9,2-2,2H2c-1.1,0-2-0.9-2-2V2C0,0.9,0.9,0,2,0z" class="st8"/></g><g id="node-3"><g><path d="M2,0h102c1.1,0,2,0.9,2,2v18c0,1.1-0.9,2-2,2H2c-1.1,0-2-0.9-2-2V2C0,0.9,0.9,0,2,0z" class="st4" transform="translate(124.000000, 0.000000) translate(1.000000, 112.000000)"/><text class="st0 st2 st3" transform="translate(124.000000, 0.000000) translate(1.000000, 112.000000) matrix(1 0 0 1 43.6953 15)">UCP</text></g><g><path d="M2,0h102c1.1,0,2,0.9,2,2v18c0,1.1-0.9,2-2,2H2c-1.1,0-2-0.9-2-2V2C0,0.9,0.9,0,2,0z" class="st5" transform="translate(124.000000, 0.000000) translate(1.000000, 89.000000)"/><text class="st0 st2 st3" transform="translate(124.000000, 0.000000) translate(1.000000, 89.000000) matrix(1 0 0 1 11.3442 15)">interlock-proxy:80</text></g><g><g><path d="M0,2c0-1.1,0.9-2,2-2h69v10.6c0,5.9-4.8,10.6-10.6,10.6H0V2z" class="st6" transform="translate(124.000000, 0.000000)"/><text class="st0 st2 st7" transform="translate(124.000000, 0.000000) matrix(1 0 0 1 6 14)">worker node</text></g></g><path d="M2,0h104c1.1,0,2,0.9,2,2v131c0,1.1-0.9,2-2,2H2c-1.1,0-2-0.9-2-2V2C0,0.9,0.9,0,2,0z" class="st8" transform="translate(124.000000, 0.000000)"/></g><g id="node-2"><g><path d="M2,0h102c1.1,0,2,0.9,2,2v18c0,1.1-0.9,2-2,2H2c-1.1,0-2-0.9-2-2V2C0,0.9,0.9,0,2,0z" class="st4" transform="translate(1.000000, 112.000000)"/><text class="st0 st2 st3" transform="translate(1.000000, 112.000000) matrix(1 0 0 1 43.6953 15)">UCP</text></g><g id="extension"><path d="M2,0h102c1.1,0,2,0.9,2,2v18c0,1.1-0.9,2-2,2H2c-1.1,0-2-0.9-2-2V2C0,0.9,0.9,0,2,0z" class="st5" transform="translate(1.000000, 89.000000)"/><text class="st0 st2 st3" transform="translate(1.000000, 89.000000) matrix(1 0 0 1 8.354 15)">interlock-extension</text></g><g id="wordpress-copy-2"><path d="M2,0h102c1.1,0,2,0.9,2,2v18c0,1.1-0.9,2-2,2H2c-1.1,0-2-0.9-2-2V2C0,0.9,0.9,0,2,0z" class="st9" transform="translate(1.000000, 66.000000)"/><text class="st0 st2 st3" transform="translate(1.000000, 66.000000) matrix(1 0 0 1 16.0391 15)">wordpress:8000</text></g><g><g><path d="M0,2c0-1.1,0.9-2,2-2h69v10.6c0,5.9-4.8,10.6-10.6,10.6H0V2z" class="st6"/><text class="st0 st2 st7" transform="matrix(1 0 0 1 6 14)">worker node</text></g></g><path d="M2,0h104c1.1,0,2,0.9,2,2v131c0,1.1-0.9,2-2,2H2c-1.1,0-2-0.9-2-2V2C0,0.9,0.9,0,2,0z" class="st8"/></g></g><g id="managers"><g id="node"><g><path d="M2,0h102c1.1,0,2,0.9,2,2v18c0,1.1-0.9,2-2,2H2c-1.1,0-2-0.9-2-2V2C0,0.9,0.9,0,2,0z" class="st4" transform="translate(1.000000, 112.000000)"/><text class="st0 st2 st3" transform="translate(1.000000, 112.000000) matrix(1 0 0 1 43.6953 15)">UCP</text></g><g id="interlock"><path d="M2,0h102c1.1,0,2,0.9,2,2v18c0,1.1-0.9,2-2,2H2c-1.1,0-2-0.9-2-2V2C0,0.9,0.9,0,2,0z" class="st5" transform="translate(1.000000, 89.000000)"/><text class="st0 st2 st3" transform="translate(1.000000, 89.000000) matrix(1 0 0 1 22.6436 15)">ucp-interlock</text></g><g><g><path d="M0,2c0-1.1,0.9-2,2-2h69v10.6c0,5.9-4.8,10.6-10.6,10.6H0V2z" class="st6"/><text class="st0 st2 st7" transform="matrix(1 0 0 1 6 14)">manager node</text></g></g><path d="M2,0h104c1.1,0,2,0.9,2,2v131c0,1.1-0.9,2-2,2H2c-1.1,0-2-0.9-2-2V2C0,0.9,0.9,0,2,0z" class="st8"/></g></g></g><g id="load-balancer" transform="translate(378.000000, 55.000000)"><g id="L7"><path d="M2,0h230c1.1,0,2,0.9,2,2v18c0,1.1-0.9,2-2,2H2c-1.1,0-2-0.9-2-2V2C0,0.9,0.9,0,2,0z" class="st6"/><text class="st0 st2 st3" transform="matrix(1 0 0 1 73.438 15)">your load balancer</text></g><g id="arrow" transform="translate(175.000000, 33.000000) scale(1, -1) rotate(-90.000000) translate(-175.000000, -33.000000) translate(163.000000, 29.000000)"><path id="Line" d="M2,4h22" class="st10"/><g id="Oval"><g><circle id="path-1" cx="4" cy="4" r="4" class="st6"/></g><circle cx="4" cy="4" r="5" class="st11"/></g></g><g><path d="M2,4h22" class="st10" transform="translate(57.000000, 33.000000) scale(1, -1) rotate(-90.000000) translate(-57.000000, -33.000000) translate(45.000000, 29.000000)"/><g transform="translate(57.000000, 33.000000) scale(1, -1) rotate(-90.000000) translate(-57.000000, -33.000000) translate(45.000000, 29.000000)"><g><circle id="path-2" cx="4" cy="4" r="4" class="st6"/></g><circle cx="4" cy="4" r="5" class="st11"/></g></g></g><path id="group" d="M0,93c0-1.1,0.9-2,2-2h724c1.1,0,2,0.9,2,2v211c0,1.1-0.9,2-2,2H2c-1.1,0-2-0.9-2-2V93z" class="st12"/><g id="user" transform="translate(420.000000, 0.000000)"><text class="st13 st2 st3" transform="matrix(1 0 0 1 0.1294 42)">http://wordpress.example.org</text><path id="Shape" d="M73,13c3.6,0,6.5-2.9,6.5-6.5C79.5,2.9,76.6,0,73,0s-6.5,2.9-6.5,6.5C66.5,10.1,69.4,13,73,13 L73,13z M73,16.2c-4.3,0-13,2.2-13,6.5V26h26v-3.2C86,18.4,77.3,16.2,73,16.2L73,16.2z" class="st14"/></g><g id="networks" transform="translate(6.000000, 174.000000)"><g id="wordpress-net" transform="translate(351.000000, 0.000000)"><text class="st1 st2 st3" transform="matrix(1 0 0 1 293.9414 75)">wordpress-net</text><path id="common" d="M286.1,72.7H10.6" class="st15"/><g id="arrow-3" transform="translate(253.500000, 47.000000) scale(1, -1) rotate(-90.000000) translate(-253.500000, -47.000000) translate(228.500000, 41.500000)"><g><g><circle id="path-3" cx="4" cy="4" r="4" class="st5"/></g><circle cx="4" cy="4" r="5" class="st11"/></g><polyline id="Path-2" points="49.7 10.5 4.1 10.5 4.1 4.7" class="st15"/></g><g id="arrow-2" transform="translate(129.500000, 47.000000) scale(1, -1) rotate(-90.000000) translate(-129.500000, -47.000000) translate(104.500000, 41.500000)"><g><g><circle id="path-4" cx="4" cy="4" r="4" class="st5"/></g><circle cx="4" cy="4" r="5" class="st11"/></g><polyline points="49.7 10.5 4.1 10.5 4.1 4.7" class="st15"/></g><g id="arrow-1" transform="translate(5.500000, 36.000000) scale(1, -1) rotate(-90.000000) translate(-5.500000, -36.000000) translate(-30.500000, 30.500000)"><g><g><circle id="path-5" cx="4" cy="4" r="4" class="st9"/></g><circle cx="4" cy="4" r="5" class="st11"/></g><polyline points="71.7 10.5 4.1 10.5 4.1 4.7" class="st15"/></g></g><g><text class="st1 st2 st3" transform="translate(0.000000, 22.000000) matrix(1 0 0 1 0.2739 53)">ucp-interlock</text><path d="M244.4,50.7h-174" class="st15" transform="translate(0.000000, 22.000000)"/><g transform="translate(0.000000, 22.000000) translate(248.500000, 25.000000) scale(1, -1) rotate(-90.000000) translate(-248.500000, -25.000000) translate(223.500000, 20.500000)"><g><g><circle id="path-6" cx="4" cy="5" r="4" class="st5"/></g><circle cx="4" cy="5" r="5" class="st11"/></g><polyline points="49.7 0 4.1 0 4.1 5.7" class="st15"/></g><g transform="translate(0.000000, 22.000000) translate(126.500000, 25.000000) scale(1, -1) rotate(-90.000000) translate(-126.500000, -25.000000) translate(101.500000, 20.500000)"><g><g><circle id="path-7" cx="4" cy="5" r="4" class="st5"/></g><circle cx="4" cy="5" r="5" class="st11"/></g><polyline points="49.7 0 4.1 0 4.1 5.7" class="st15"/></g></g></g></g></g></svg>