<svg xmlns="http://www.w3.org/2000/svg" xmlns:xlink="http://www.w3.org/1999/xlink" id="Layer_1" x="0" y="0" enable-background="new 0 0 740 307" version="1.1" viewBox="0 0 740 307" xml:space="preserve"><style type="text/css">.st0{fill:#fff}.st1{fill:#e0e4e7}.st2{font-family:&apos;OpenSans&apos;}.st3{font-size:10px}.st4{fill:none;stroke:#e0e4e7;stroke-width:2;stroke-dasharray:5,5,5,5}.st5{fill-rule:evenodd;clip-rule:evenodd;fill:#445d6e}.st6{fill:none;stroke:#e0e4e7;stroke-width:2;stroke-linecap:round;stroke-linejoin:round}.st7{fill:#fff;filter:url(#Adobe_OpacityMaskFilter)}.st8{mask:url(#mask-2_1_)}.st9{fill-rule:evenodd;clip-rule:evenodd;fill:#e0e4e7}.st10{fill:none;stroke:#f7f8f9;stroke-width:4}.st11{fill:#fff;filter:url(#Adobe_OpacityMaskFilter_1_)}.st12{mask:url(#mask-4_1_)}.st13{fill:none;stroke:#445d6e;stroke-width:2;stroke-linecap:round;stroke-linejoin:round}.st14{fill:#fff;filter:url(#Adobe_OpacityMaskFilter_2_)}.st15{mask:url(#mask-6_1_)}.st16{font-size:8px}.st17,.st18{fill-rule:evenodd;clip-rule:evenodd;fill:#1488c6}.st18{fill:#ffb463}.st19,.st20{fill:none;stroke:#445d6e;stroke-width:2}.st20{fill-rule:evenodd;clip-rule:evenodd;fill:#e0e4e7;stroke:#e0e4e7}.st21{font-size:100px}.st22{fill:#f7f8f9}.st23{fill-rule:evenodd;clip-rule:evenodd;fill:#00b6b5}</style><rect width="740" height="307" class="st0"/><title>scale-your-cluster-1</title><desc>Created with Sketch.</desc><g id="architecture-diagrams"><g id="scale-your-cluster-1"><g id="ddc" transform="translate(170.000000, 8.000000)"><g id="swarm-group" transform="translate(0.000000, 42.000000)"><text class="st1 st2 st3" transform="matrix(1 0 0 1 9.025 236.0095)">Docker swarm</text><path id="group" d="M2,0h397c1.1,0,2,0.9,2,2v241c0,1.1-0.9,2-2,2H2c-1.1,0-2-0.9-2-2V2C0,0.9,0.9,0,2,0z" class="st4"/></g><g id="load-balancer" transform="translate(47.000000, 0.000000)"><g id="main"><path id="Rectangle-138" d="M2,0h305c1.1,0,2,0.9,2,2v18c0,1.1-0.9,2-2,2H2c-1.1,0-2-0.9-2-2V2C0,0.9,0.9,0,2,0z" class="st5"/><text class="st0 st2 st3" transform="matrix(1 0 0 1 111.438 15)">your load balancer</text></g><g id="arrows" transform="translate(43.000000, 21.000000)"><g id="arrow-copy" transform="translate(111.500000, 17.000000) scale(1, -1) rotate(-90.000000) translate(-111.500000, -17.000000) translate(95.000000, 13.000000)"><path id="Line" d="M2,4h31" class="st6"/><defs><filter id="Adobe_OpacityMaskFilter" filterUnits="userSpaceOnUse"><feColorMatrix type="matrix" values="1 0 0 0 0 0 1 0 0 0 0 0 1 0 0 0 0 0 1 0"/></filter></defs><mask id="mask-2_1_" maskUnits="userSpaceOnUse"><rect width="12" height="-12" x="-31.5" y="-357.5" class="st7" transform="matrix(2.535182e-06 1 -1 2.535182e-06 -388.9999 -337.9991)"/><g><circle id="path-1_1_" cx="-25.5" cy="-363.5" r="4"/></g></mask><g id="Oval" class="st8"><g><circle cx="4" cy="4" r="4" class="st9"/></g><g><circle cx="4" cy="4" r="4" class="st10"/></g></g></g><g id="arrow-copy-4" transform="translate(218.500000, 17.000000) scale(1, -1) rotate(-90.000000) translate(-218.500000, -17.000000) translate(202.000000, 13.000000)"><path d="M2,4h31" class="st6"/><defs><filter id="Adobe_OpacityMaskFilter_1_" filterUnits="userSpaceOnUse"><feColorMatrix type="matrix" values="1 0 0 0 0 0 1 0 0 0 0 0 1 0 0 0 0 0 1 0"/></filter></defs><mask id="mask-4_1_" maskUnits="userSpaceOnUse"><rect width="12" height="-12" x="-31.5" y="-464.5" class="st11" transform="matrix(2.535182e-06 1 -1 2.535182e-06 -495.9999 -444.9988)"/><g><circle id="path-3_1_" cx="-25.5" cy="-470.5" r="4"/></g></mask><g class="st12"><g><circle cx="4" cy="4" r="4" class="st9"/></g><g><circle cx="4" cy="4" r="4" class="st10"/></g></g></g><g id="arrow-copy-2" transform="translate(4.500000, 17.000000) scale(1, -1) rotate(-90.000000) translate(-4.500000, -17.000000) translate(-12.000000, 13.000000)"><path d="M2,4h31" class="st13"/><defs><filter id="Adobe_OpacityMaskFilter_2_" filterUnits="userSpaceOnUse"><feColorMatrix type="matrix" values="1 0 0 0 0 0 1 0 0 0 0 0 1 0 0 0 0 0 1 0"/></filter></defs><mask id="mask-6_1_" maskUnits="userSpaceOnUse"><rect width="12" height="-12" x="-31.5" y="-250.5" class="st14" transform="matrix(2.535182e-06 1 -1 2.535182e-06 -281.9999 -230.9993)"/><g><circle id="path-5_1_" cx="-25.5" cy="-256.5" r="4"/></g></mask><g class="st15"><g><circle cx="4" cy="4" r="4" class="st5"/></g><g><circle cx="4" cy="4" r="4" class="st10"/></g></g></g></g></g><g id="swam" transform="translate(46.000000, 34.000000)"><g id="nodes"><g id="workers" transform="translate(53.000000, 121.000000)"><g id="node-1" transform="translate(0.000000, 17.000000)"><g id="node"><g id="node-label"><path id="Rectangle-127" d="M2,0h67c1.1,0,2,0.9,2,2v17.3c0,1.1-0.9,2-2,2H2c-1.1,0-2-0.9-2-2V2 C0,0.9,0.9,0,2,0z" class="st5"/><text class="st0 st2 st16" transform="matrix(1 0 0 1 6 14)">worker node</text></g></g><g id="engine"><path d="M2,0h91c1.1,0,2,0.9,2,2v18c0,1.1-0.9,2-2,2H2c-1.1,0-2-0.9-2-2V2C0,0.9,0.9,0,2,0z" class="st17" transform="translate(1.000000, 79.000000)"/><text class="st0 st2 st3" transform="translate(1.000000, 79.000000) matrix(1 0 0 1 7.2603 15)">Docker EE Engine</text></g><g id="ucp"><path d="M2,0h91c1.1,0,2,0.9,2,2v18c0,1.1-0.9,2-2,2H2c-1.1,0-2-0.9-2-2V2C0,0.9,0.9,0,2,0z" class="st17" transform="translate(1.000000, 56.000000)"/><text class="st0 st2 st3" transform="translate(1.000000, 56.000000) matrix(1 0 0 1 23.7373 15)">UCP agent</text></g><g id="app"><path d="M2,0h91c1.1,0,2,0.9,2,2v18c0,1.1-0.9,2-2,2H2c-1.1,0-2-0.9-2-2V2C0,0.9,0.9,0,2,0z" class="st18" transform="translate(1.000000, 33.000000)"/><text class="st0 st2 st3" transform="translate(1.000000, 33.000000) matrix(1 0 0 1 20.4756 15)">UCP worker</text></g><path id="node-border" d="M2,0h93c1.1,0,2,0.9,2,2v98c0,1.1-0.9,2-2,2H2c-1.1,0-2-0.9-2-2V2C0,0.9,0.9,0,2,0z" class="st19"/></g><g id="node-1-copy"><path d="M2,17h93c1.1,0,2,0.9,2,2v98c0,1.1-0.9,2-2,2H2c-1.1,0-2-0.9-2-2V19C0,17.9,0.9,17,2,17z" class="st20" transform="translate(107.000000, 0.000000)"/><text class="st0 st2 st21" transform="translate(107.000000, 0.000000) matrix(1 0 0 1 20.4111 104)">+</text></g></g><g id="managers"><g><path d="M2,20h93c1.1,0,2,0.9,2,2v98c0,1.1-0.9,2-2,2H2c-1.1,0-2-0.9-2-2V22C0,20.9,0.9,20,2,20z" class="st20" transform="translate(107.000000, 0.000000)"/><text class="st22 st2 st21" transform="translate(107.000000, 0.000000) matrix(1 0 0 1 20.4111 107)">+</text></g><g id="node-1-copy-4"><path d="M2,20h93c1.1,0,2,0.9,2,2v98c0,1.1-0.9,2-2,2H2c-1.1,0-2-0.9-2-2V22C0,20.9,0.9,20,2,20z" class="st20" transform="translate(214.000000, 0.000000)"/><text class="st0 st2 st21" transform="translate(214.000000, 0.000000) matrix(1 0 0 1 20.4111 107)">+</text></g><g><g><g><path d="M2,0h67c1.1,0,2,0.9,2,2v17.3c0,1.1-0.9,2-2,2H2c-1.1,0-2-0.9-2-2V2C0,0.9,0.9,0,2,0z" class="st5" transform="translate(0.000000, 20.000000)"/><text class="st0 st2 st16" transform="translate(0.000000, 20.000000) matrix(1 0 0 1 6 14)">manager node</text></g></g><g><path d="M2,0h91c1.1,0,2,0.9,2,2v18c0,1.1-0.9,2-2,2H2c-1.1,0-2-0.9-2-2V2C0,0.9,0.9,0,2,0z" class="st17" transform="translate(0.000000, 20.000000) translate(1.000000, 79.000000)"/><text class="st0 st2 st3" transform="translate(0.000000, 20.000000) translate(1.000000, 79.000000) matrix(1 0 0 1 7.2603 15)">Docker EE Engine</text></g><g><path d="M2,0h91c1.1,0,2,0.9,2,2v18c0,1.1-0.9,2-2,2H2c-1.1,0-2-0.9-2-2V2C0,0.9,0.9,0,2,0z" class="st17" transform="translate(0.000000, 20.000000) translate(1.000000, 56.000000)"/><text class="st0 st2 st3" transform="translate(0.000000, 20.000000) translate(1.000000, 56.000000) matrix(1 0 0 1 23.7373 15)">UCP agent</text></g><g><path d="M2,0h91c1.1,0,2,0.9,2,2v18c0,1.1-0.9,2-2,2H2c-1.1,0-2-0.9-2-2V2C0,0.9,0.9,0,2,0z" class="st23" transform="translate(0.000000, 20.000000) translate(1.000000, 33.000000)"/><text class="st0 st2 st3" transform="translate(0.000000, 20.000000) translate(1.000000, 33.000000) matrix(1 0 0 1 16.0298 15)">UCP manager</text></g><path d="M2,0h93c1.1,0,2,0.9,2,2v98c0,1.1-0.9,2-2,2H2c-1.1,0-2-0.9-2-2V2C0,0.9,0.9,0,2,0z" class="st19" transform="translate(0.000000, 20.000000)"/></g></g></g></g></g></g></g></svg>