<svg xmlns="http://www.w3.org/2000/svg" xmlns:xlink="http://www.w3.org/1999/xlink" id="Layer_1" x="0" y="0" enable-background="new 0 0 740 250" version="1.1" viewBox="0 0 740 250" xml:space="preserve"><style type="text/css">.st0{fill:#fff}.st1{fill-rule:evenodd;clip-rule:evenodd;fill:#439fd1}.st2,.st3{fill:none;stroke-width:2}.st2{stroke:#82949e;stroke-linecap:round;stroke-linejoin:round}.st3{stroke:#f7f8f9}.st4{fill-rule:evenodd;clip-rule:evenodd;fill:#82949e}.st5{font-family:&apos;OpenSans&apos;}.st6{font-size:8px}.st7{fill:none;stroke:#82949e;stroke-width:2}.st8{fill-rule:evenodd;clip-rule:evenodd;fill:#fff}.st9{fill:#82949e}.st10{font-family:&apos;Courier-Bold&apos;}.st11{font-size:30px}.st12{fill:none;stroke:#439fd1;stroke-width:2;stroke-linecap:round;stroke-linejoin:round}.st13,.st14{fill-rule:evenodd;clip-rule:evenodd;fill:#445d6e}.st14{fill:#1488c6}.st15{font-size:10px}.st16,.st17{fill:none;stroke:#445d6e;stroke-width:2}.st17{stroke:#fff;stroke-width:3}</style><rect width="740" height="250" class="st0"/><title>dr-overview-1</title><desc>Created with Sketch.</desc><g id="dtr-diagrams"><g id="dr-overview-1"><g id="group" transform="translate(29.000000, 55.000000)"><g id="dtr"><g id="network" transform="translate(0.000000, 127.000000)"><path id="Rectangle-138" d="M2,0h678c1.1,0,2,0.9,2,2v10c0,1.1-0.9,2-2,2H2c-1.1,0-2-0.9-2-2V2C0,0.9,0.9,0,2,0z" class="st1"/></g><g id="nodes"><g id="node-1-copy-4" transform="translate(476.000000, 0.000000)"><g id="arrow" transform="translate(48.500000, 119.000000) rotate(-90.000000) translate(-48.500000, -119.000000) translate(32.000000, 115.000000)"><path id="Line" d="M2,4h31" class="st2"/><g id="Oval"><g><circle id="path-1" cx="4" cy="4" r="4" class="st1"/></g><circle cx="4" cy="4" r="5" class="st3"/></g></g><g id="node"><g id="node-label"><path id="Rectangle-127" d="M0,2c0-1.1,0.9-2,2-2h69v10.6c0,5.9-4.8,10.6-10.6,10.6H0V2z" class="st4"/><text class="st0 st5 st6" transform="matrix(1 0 0 1 6 14)">worker node</text></g></g><g id="engine"><path d="M2,0h93c1.1,0,2,0.9,2,2v55c0,1.1-0.9,2-2,2H2c-1.1,0-2-0.9-2-2V2C0,0.9,0.9,0,2,0z" class="st4" transform="translate(0.000000, 43.000000)"/></g><path id="node-border" d="M2,0h93c1.1,0,2,0.9,2,2v98c0,1.1-0.9,2-2,2H2c-1.1,0-2-0.9-2-2V2C0,0.9,0.9,0,2,0z" class="st7"/></g><g id="node-1-copy-3" transform="translate(367.000000, 0.000000)"><g><path d="M2,4h31" class="st2" transform="translate(48.500000, 119.000000) rotate(-90.000000) translate(-48.500000, -119.000000) translate(32.000000, 115.000000)"/><g transform="translate(48.500000, 119.000000) rotate(-90.000000) translate(-48.500000, -119.000000) translate(32.000000, 115.000000)"><g><circle id="path-2" cx="4" cy="4" r="4" class="st1"/></g><circle cx="4" cy="4" r="5" class="st3"/></g></g><g><g><path d="M0,2c0-1.1,0.9-2,2-2h69v10.6c0,5.9-4.8,10.6-10.6,10.6H0V2z" class="st4"/><text class="st0 st5 st6" transform="matrix(1 0 0 1 6 14)">worker node</text></g></g><g><path d="M2,0h93c1.1,0,2,0.9,2,2v55c0,1.1-0.9,2-2,2H2c-1.1,0-2-0.9-2-2V2C0,0.9,0.9,0,2,0z" class="st4" transform="translate(0.000000, 43.000000)"/></g><path d="M2,0h93c1.1,0,2,0.9,2,2v98c0,1.1-0.9,2-2,2H2c-1.1,0-2-0.9-2-2V2C0,0.9,0.9,0,2,0z" class="st7"/><g id="error" transform="translate(32.000000, 55.000000)"><circle id="Oval-3" cx="17" cy="17" r="17" class="st8"/><text class="st9 st10 st11" transform="matrix(1 0 0 1 8.4985 27)">!</text></g></g><g id="node-1-copy-2"><g><path d="M2,4h31" class="st12" transform="translate(218.000000, 0.000000) translate(48.500000, 119.000000) rotate(-90.000000) translate(-48.500000, -119.000000) translate(32.000000, 115.000000)"/><g transform="translate(218.000000, 0.000000) translate(48.500000, 119.000000) rotate(-90.000000) translate(-48.500000, -119.000000) translate(32.000000, 115.000000)"><g><circle id="path-3" cx="4" cy="4" r="4" class="st1"/></g><circle cx="4" cy="4" r="5" class="st3"/></g></g><g><g><path d="M0,2c0-1.1,0.9-2,2-2h69v10.6c0,5.9-4.8,10.6-10.6,10.6H0V2z" class="st13" transform="translate(218.000000, 0.000000)"/><text class="st0 st5 st6" transform="translate(218.000000, 0.000000) matrix(1 0 0 1 6 14)">worker node</text></g></g><g><path d="M2,0h91c1.1,0,2,0.9,2,2v54c0,1.1-0.9,2-2,2H2c-1.1,0-2-0.9-2-2V2C0,0.9,0.9,0,2,0z" class="st14" transform="translate(218.000000, 0.000000) translate(1.000000, 43.000000)"/><text class="st0 st5 st15" transform="translate(218.000000, 0.000000) translate(1.000000, 43.000000) matrix(1 0 0 1 38.498 33)">DTR</text></g><path d="M2,0h93c1.1,0,2,0.9,2,2v98c0,1.1-0.9,2-2,2H2c-1.1,0-2-0.9-2-2V2C0,0.9,0.9,0,2,0z" class="st16" transform="translate(218.000000, 0.000000)"/></g><g id="node-1-copy"><g><path d="M2,4h31" class="st12" transform="translate(109.000000, 0.000000) translate(48.500000, 119.000000) rotate(-90.000000) translate(-48.500000, -119.000000) translate(32.000000, 115.000000)"/><g transform="translate(109.000000, 0.000000) translate(48.500000, 119.000000) rotate(-90.000000) translate(-48.500000, -119.000000) translate(32.000000, 115.000000)"><g><circle id="path-4" cx="4" cy="4" r="4" class="st1"/></g><circle cx="4" cy="4" r="5" class="st3"/></g></g><g><g><path d="M0,2c0-1.1,0.9-2,2-2h69v10.6c0,5.9-4.8,10.6-10.6,10.6H0V2z" class="st13" transform="translate(109.000000, 0.000000)"/><text class="st0 st5 st6" transform="translate(109.000000, 0.000000) matrix(1 0 0 1 6 14)">worker node</text></g></g><g><path d="M2,0h91c1.1,0,2,0.9,2,2v54c0,1.1-0.9,2-2,2H2c-1.1,0-2-0.9-2-2V2C0,0.9,0.9,0,2,0z" class="st14" transform="translate(109.000000, 0.000000) translate(1.000000, 43.000000)"/><text class="st0 st5 st15" transform="translate(109.000000, 0.000000) translate(1.000000, 43.000000) matrix(1 0 0 1 38.498 33)">DTR</text></g><path d="M2,0h93c1.1,0,2,0.9,2,2v98c0,1.1-0.9,2-2,2H2c-1.1,0-2-0.9-2-2V2C0,0.9,0.9,0,2,0z" class="st16" transform="translate(109.000000, 0.000000)"/></g><g id="node-1"><g><path d="M2,4h31" class="st12" transform="translate(48.500000, 119.000000) rotate(-90.000000) translate(-48.500000, -119.000000) translate(32.000000, 115.000000)"/><g transform="translate(48.500000, 119.000000) rotate(-90.000000) translate(-48.500000, -119.000000) translate(32.000000, 115.000000)"><g><circle id="path-5" cx="4" cy="4" r="4" class="st1"/></g><circle cx="4" cy="4" r="5" class="st3"/></g></g><g><g><path d="M0,2c0-1.1,0.9-2,2-2h69v10.6c0,5.9-4.8,10.6-10.6,10.6H0V2z" class="st13"/><text class="st0 st5 st6" transform="matrix(1 0 0 1 6 14)">worker node</text></g></g><g><path d="M2,0h91c1.1,0,2,0.9,2,2v54c0,1.1-0.9,2-2,2H2c-1.1,0-2-0.9-2-2V2C0,0.9,0.9,0,2,0z" class="st14" transform="translate(1.000000, 43.000000)"/><text class="st0 st5 st15" transform="translate(1.000000, 43.000000) matrix(1 0 0 1 38.498 33)">DTR</text></g><path d="M2,0h93c1.1,0,2,0.9,2,2v98c0,1.1-0.9,2-2,2H2c-1.1,0-2-0.9-2-2V2C0,0.9,0.9,0,2,0z" class="st16"/></g></g></g></g><g transform="translate(539.000000, 175.000000)"><circle cx="14" cy="14" r="14" class="st4"/><path id="Path-5" d="M14,14L8.3,8.3L14,14l5.7-5.7L14,14z M14,14l-5.7,5.7L14,14l5.7,5.7L14,14z" class="st17"/></g></g></g></svg>