<svg xmlns="http://www.w3.org/2000/svg" xmlns:xlink="http://www.w3.org/1999/xlink" id="Layer_1" x="0" y="0" enable-background="new 0 0 740 250" version="1.1" viewBox="0 0 740 250" xml:space="preserve"><style type="text/css">.st0{fill:#fff}.st1{fill:#82949e}.st2{font-family:&apos;OpenSans&apos;}.st3{font-size:12px}.st4{fill:none;stroke:#82949e;stroke-width:2;stroke-dasharray:5,5,5,5}.st5{fill:none;stroke:#e0e4e7;stroke-linecap:square}.st6{font-size:14px}.st7{fill:#8f9ea8}.st8{font-family:&apos;MyriadPro-Regular&apos;}.st9{font-size:26px}.st10{fill-rule:evenodd;clip-rule:evenodd;fill:#e0e4e7}.st11,.st12{fill:none;stroke:#e0e4e7;stroke-width:2}.st12{stroke-linecap:round;stroke-linejoin:round}.st13,.st14{fill-rule:evenodd;clip-rule:evenodd;fill:#254356}.st14{fill:#82949e}.st15{fill:#e0e4e7}.st16{font-family:&apos;Courier-Bold&apos;}.st17{font-size:13px}.st18{fill:#254356}</style><rect width="740" height="250" class="st0"/><title>internal-promotion-1</title><desc>Created with Sketch.</desc><g id="dtr-diagrams"><g id="internal-promotion-1"><g id="all" transform="translate(144.000000, 3.000000)"><g id="middle" transform="translate(251.000000, 0.000000)"><text class="st1 st2 st3" transform="matrix(1 0 0 1 11.025 234.0095)">dtr.example.org</text><path id="group" d="M2,0h196c1.1,0,2,0.9,2,2v241c0,1.1-0.9,2-2,2H2c-1.1,0-2-0.9-2-2V2C0,0.9,0.9,0,2,0z" class="st4"/><g id="website-prod" transform="translate(31.000000, 145.000000)"><text class="st1 st2 st3" transform="matrix(1 0 0 1 38 40)">2018-01-16</text><path id="Line" d="M31.5,31.5v9" class="st5"/><text class="st1 st2 st6" transform="matrix(1 0 0 1 31 19)">qa/website</text><text class="st7 st8 st9" transform="matrix(1 0 0 1 0 22)"></text></g><g id="website-dev"><text class="st1 st2 st3" transform="translate(31.000000, 16.000000) matrix(1 0 0 1 38 40)">1</text><text class="st1 st2 st3" transform="translate(31.000000, 16.000000) matrix(1 0 0 1 38 57)">2</text><text class="st1 st2 st3" transform="translate(31.000000, 16.000000) matrix(1 0 0 1 38 74)">3-stable</text><path d="M31.5,31.5v42" class="st5" transform="translate(31.000000, 16.000000)"/><text class="st1 st2 st6" transform="translate(31.000000, 16.000000) matrix(1 0 0 1 31 19)">dev/website</text><text class="st7 st8 st9" transform="translate(31.000000, 16.000000) matrix(1 0 0 1 0 22)"></text></g><g id="arrow-3" transform="translate(145.000000, 84.000000)"><circle id="Oval" cx="4" cy="60" r="4" class="st10"/><path id="Path-3" d="M3.4,0.6c0,0,9.2,11.4,9.2,30s-9.2,30-9.2,30" class="st11"/><g id="annotation" transform="translate(20.000000, 17.000000)"><circle id="Oval-Copy" cx="12" cy="12" r="12" class="st10"/><text class="st0 st2 st6" transform="matrix(1 0 0 1 8 18)">2</text></g></g></g><g id="arrow-1" transform="translate(175.000000, 78.000000)"><circle cx="65" cy="44" r="4" class="st10"/><path d="M0,44c0,0,10.6-9.5,32-9.5S64,44,64,44" class="st12"/><g transform="translate(20.000000, 0.000000)"><circle cx="12" cy="12" r="12" class="st10"/><text class="st0 st2 st6" transform="matrix(1 0 0 1 8 18)">1</text></g></g><g id="terminal" transform="translate(0.000000, 71.000000)"><path id="Rectangle-2" d="M2,0h166c1.1,0,2,0.9,2,2v98c0,1.1-0.9,2-2,2H2c-1.1,0-2-0.9-2-2V2C0,0.9,0.9,0,2,0z" class="st13"/><path id="Rectangle-2-Copy" d="M2,0h166c1.1,0,2,0.9,2,2v16c0,1.1-0.9,2-2,2H2c-1.1,0-2-0.9-2-2V2C0,0.9,0.9,0,2,0 z" class="st14"/><text class="st15 st16 st17" transform="matrix(1 0 0 1 11 38)">&gt; docker push</text><text class="st15 st16 st17" transform="matrix(1 0 0 1 11 74)">dtr.example.org/</text><text class="st15 st16 st17" transform="matrix(1 0 0 1 11 92)">dev/website:3-stable</text><text class="st18 st16 st3" transform="matrix(1 0 0 1 51 13)">localhost</text></g></g></g></g></svg>