<svg xmlns="http://www.w3.org/2000/svg" xmlns:xlink="http://www.w3.org/1999/xlink" id="Layer_1" x="0" y="0" enable-background="new 0 0 740 383" version="1.1" viewBox="0 0 740 383" xml:space="preserve"><style type="text/css">.st0{fill:#fff}.st1{fill:#e0e4e7}.st2{font-family:&apos;OpenSans&apos;}.st3{font-size:10px}.st4{fill:none;stroke:#e0e4e7;stroke-width:2;stroke-dasharray:5,5,5,5}.st5{fill-rule:evenodd;clip-rule:evenodd;fill:#1488c6}.st6{font-size:14px}.st7{fill-rule:evenodd;clip-rule:evenodd;fill:#82949e}.st8{fill:#637986}.st9{font-family:&apos;Courier-Bold&apos;}.st10{fill:none;stroke:#1488c6;stroke-width:2;stroke-linecap:round;stroke-linejoin:round}.st11{fill:#fff;filter:url(#Adobe_OpacityMaskFilter)}.st12{mask:url(#mask-10_1_)}.st13{fill:none;stroke:#fff;stroke-width:4}.st14{fill-rule:evenodd;clip-rule:evenodd;fill:#fff;stroke:#82949e;stroke-width:2}.st15{fill:#82949e}.st16{font-size:12px}.st17{fill-rule:evenodd;clip-rule:evenodd;fill:#00b6b5}.st18,.st19{fill:none;stroke:#fff;stroke-linecap:round}.st19{stroke:#e0e4e7;stroke-linecap:square}.st20{fill-rule:evenodd;clip-rule:evenodd;fill:#254356}.st21{enable-background:new}</style><rect width="740" height="383" class="st0"/><title>sign-an-image-2</title><desc>Created with Sketch.</desc><g id="Group" transform="translate(53.000000, 12.000000)"><g><g id="stack" transform="translate(0.000000, 94.000000)"><text class="st1 st2 st3" transform="matrix(1 0 0 1 10.8219 172.0095)">DTR</text><path id="group" d="M2,0h364c1.1,0,2,0.9,2,2v176c0,1.1-0.9,2-2,2H2c-1.1,0-2-0.9-2-2V2C0,0.9,0.9,0,2,0z" class="st4"/><g id="components" transform="translate(10.000000, 9.000000)"><g id="Group-2" transform="translate(0.000000, 109.000000)"><g id="notary" transform="translate(176.000000, 0.000000)"><path id="Rectangle-138" d="M2,0h168c1.1,0,2,0.9,2,2v30c0,1.1-0.9,2-2,2H2c-1.1,0-2-0.9-2-2V2C0,0.9,0.9,0,2,0z" class="st5"/><text class="st0 st2 st6" transform="matrix(1 0 0 1 42.9927 23)">notary server</text></g><g id="registry"><path d="M2,0h168c1.1,0,2,0.9,2,2v30c0,1.1-0.9,2-2,2H2c-1.1,0-2-0.9-2-2V2C0,0.9,0.9,0,2,0z" class="st5"/><text class="st0 st2 st6" transform="matrix(1 0 0 1 61.9146 23)">registry</text></g></g><g id="others"><path d="M2,0h344c1.1,0,2,0.9,2,2v63c0,1.1-0.9,2-2,2H2c-1.1,0-2-0.9-2-2V2C0,0.9,0.9,0,2,0z" class="st7" transform="translate(0.000000, 38.000000)"/></g><g id="front-end"><path d="M2,0h344c1.1,0,2,0.9,2,2v30c0,1.1-0.9,2-2,2H2c-1.1,0-2-0.9-2-2V2C0,0.9,0.9,0,2,0z" class="st5"/><text class="st0 st2 st6" transform="matrix(1 0 0 1 143.5093 23)">front-end</text></g></g></g><g id="user" transform="translate(54.000000, 0.000000)"><text class="st8 st9 st6" transform="matrix(1 0 0 1 0 47)">&gt; export DOCKER_CONTENT_TRUST=1</text><text class="st8 st9 st6" transform="matrix(1 0 0 1 0 63)">docker push</text><path id="Shape" d="M131,13c3.6,0,6.5-2.9,6.5-6.5c0-3.6-2.9-6.5-6.5-6.5s-6.5,2.9-6.5,6.5 C124.5,10.1,127.4,13,131,13L131,13z M131,16.2c-4.3,0-13,2.2-13,6.5V26h26v-3.2C144,18.4,135.3,16.2,131,16.2L131,16.2z" class="st7"/></g></g><g id="arrow" transform="translate(381.500000, 120.000000) scale(1, -1) translate(-381.500000, -120.000000) translate(355.000000, 116.000000)"><path d="M2,4h50.5" class="st10"/><defs><filter id="Adobe_OpacityMaskFilter" width="12" height="12" x="-2" y="-10" filterUnits="userSpaceOnUse"><feColorMatrix type="matrix" values="1 0 0 0 0 0 1 0 0 0 0 0 1 0 0 0 0 0 1 0"/></filter></defs><mask id="mask-10_1_" width="12" height="12" x="-2" y="-10" maskUnits="userSpaceOnUse"><rect width="12" height="-12" x="-410" y="138" class="st11"/><g><circle id="path-9_1_" cx="-404" cy="132" r="4"/></g></mask><g class="st12"><g><circle cx="4" cy="4" r="4" class="st5"/></g><g><circle cx="4" cy="4" r="4" class="st13"/></g></g></g><g id="chrome"><rect width="228" height="144" x="407" y="103" class="st14"/></g><g id="table" transform="translate(9.000000, 60.000000)"><g id="data"><text class="st15 st2 st16" transform="translate(0.000000, 25.000000) matrix(1 0 0 1 552 116)">dave.lauper</text><text class="st15 st2 st16" transform="translate(0.000000, 25.000000) matrix(1 0 0 1 468 116)">9baa16</text><text class="st15 st2 st16" transform="translate(0.000000, 25.000000) matrix(1 0 0 1 407 116)">1</text></g><g id="signed" transform="translate(9.000000, 28.000000)"><circle id="sign" cx="412.5" cy="108.5" r="5.5" class="st17"/><polyline id="Path-2" points="409.3 108 411.7 110.3 415.5 106.3" class="st18"/></g><g id="header"><text class="st15 st2 st16" transform="matrix(1 0 0 1 552 116)">last pushed</text><text class="st15 st2 st16" transform="matrix(1 0 0 1 468 116)">id</text><text class="st15 st2 st16" transform="matrix(1 0 0 1 407 116)">tag</text></g></g><g id="repo" transform="translate(0.000000, 26.000000)"><rect width="228" height="27" x="407" y="103" class="st7"/><text class="st0 st2 st16" transform="matrix(1 0 0 1 416 121)">dev/nginx</text></g><g><path d="M416.5,182.5h208" class="st19"/><rect width="228" height="27" x="407" y="103" class="st5"/><text class="st0 st2 st16" transform="matrix(1 0 0 1 416 121)">docker trusted registry</text></g></g><path id="Rectangle-2" d="M65,303h167c1.1,0,2,0.6,2,1.3v65.3c0,0.7-0.9,1.3-2,1.3H65c-1.1,0-2-0.6-2-1.3v-65.3	C63,303.6,63.9,303,65,303z" class="st20"/><path d="M149.5,257.5V308" class="st10"/><text class="st1 st9 st6" transform="matrix(1 0 0 1 74 323)">dev/ngnix:1</text><path id="Rectangle-2_1_" d="M241,303h167c1.1,0,2,0.6,2,1.3v65.3c0,0.7-0.9,1.3-2,1.3H241c-1.1,0-2-0.6-2-1.3v-65.3	C239,303.6,239.9,303,241,303z" class="st20"/><path d="M325.5,257.5V308" class="st10"/><circle cx="149.3" cy="259.3" r="4.2" class="st5"/><circle cx="325.3" cy="259.3" r="4.2" class="st5"/><text class="st21" transform="matrix(1 0 0 1 243 323)"><tspan x="0" y="0" class="st1 st9 st6">dev/ngnix:1</tspan><tspan x="0" y="16.8" class="st0 st9 st6">digest: m647f0</tspan><tspan x="0" y="33.6" class="st0 st9 st6">signed-by: 53f4a3</tspan></text></svg>