<svg xmlns="http://www.w3.org/2000/svg" xmlns:xlink="http://www.w3.org/1999/xlink" id="Layer_1" x="0" y="0" enable-background="new 0 0 740 250" version="1.1" viewBox="0 0 740 250" xml:space="preserve"><style type="text/css">.st0{fill:#fff}.st1{fill:#82949e}.st2{font-family:&apos;OpenSans&apos;}.st3{font-size:10px}.st4{fill:#439fd1}.st4,.st5,.st6,.st7,.st8{fill-rule:evenodd;clip-rule:evenodd}.st5{fill-opacity:5.000000e-02}.st5,.st6,.st7,.st8{fill:#fff}.st6{fill-opacity:.2}.st7{fill-opacity:.4}.st8{fill-opacity:.6}.st9{fill-opacity:.8}.st10,.st9{fill-rule:evenodd;clip-rule:evenodd;fill:#fff}.st11{fill:none;stroke:#439fd1;stroke-width:2;stroke-linecap:round;stroke-linejoin:round}.st12{fill:#fff;filter:url(#Adobe_OpacityMaskFilter)}.st13{mask:url(#mask-2_1_)}.st14{fill:none;stroke:#f7f8f9;stroke-width:4}.st15{fill:#fff;filter:url(#Adobe_OpacityMaskFilter_1_)}.st16{mask:url(#mask-4_1_)}.st17{fill:#fff;filter:url(#Adobe_OpacityMaskFilter_2_)}.st18{mask:url(#mask-6_1_)}.st19{fill-rule:evenodd;clip-rule:evenodd;fill:#445d6e}.st20{font-size:8px}.st21{fill:#1488c6}.st21,.st22{fill-rule:evenodd;clip-rule:evenodd}.st23,.st24{fill:none;stroke:#445d6e;stroke-width:2}.st24{stroke:#82949e;stroke-dasharray:5,5,5,5}</style><rect width="740" height="250" class="st0"/><title>troubleshoot-batch-jobs</title><desc>Created with Sketch.</desc><g id="dtr-diagrams"><g id="troubleshoot-batch-jobs"><g><g transform="translate(154.000000, 3.000000)"><text class="st1 st2 st3" transform="matrix(1 0 0 1 7.025 236.0095)">DTR cluster</text><g id="network" transform="translate(33.000000, 178.000000)"><path id="Rectangle-138" d="M2,0h362c1.1,0,2,0.9,2,2v18c0,1.1-0.9,2-2,2H2c-1.1,0-2-0.9-2-2V2C0,0.9,0.9,0,2,0z" class="st4"/><text class="st0 st2 st3" transform="matrix(1 0 0 1 160.0405 15)">job queue</text><g id="work" transform="translate(6.000000, 5.000000)"><rect id="Rectangle-Copy-5" width="12" height="12" x="70" class="st5"/><rect id="Rectangle-Copy-4" width="12" height="12" x="56" class="st6"/><rect id="Rectangle-Copy-3" width="12" height="12" x="42" class="st7"/><rect id="Rectangle-Copy-2" width="12" height="12" x="28" class="st8"/><rect id="Rectangle-Copy" width="12" height="12" x="14" class="st9"/><rect id="Rectangle" width="12" height="12" class="st10"/></g></g><g id="arrows" transform="translate(104.000000, 147.000000)"><g id="arrow-copy-2" transform="translate(218.500000, 17.000000) rotate(-90.000000) translate(-218.500000, -17.000000) translate(202.000000, 13.000000)"><path id="Line" d="M2,4h31" class="st11"/><defs><filter id="Adobe_OpacityMaskFilter" width="12" height="12" x="-2" y="-10" filterUnits="userSpaceOnUse"><feColorMatrix type="matrix" values="1 0 0 0 0 0 1 0 0 0 0 0 1 0 0 0 0 0 1 0"/></filter></defs><mask id="mask-2_1_" width="12" height="12" x="-2" y="-10" maskUnits="userSpaceOnUse"><rect width="12" height="12" x="173.5" y="-474.5" class="st12" transform="matrix(-2.535182e-06 -1 1 -2.535182e-06 648.0004 -289.0012)"/><g><circle id="path-1_1_" cx="179.5" cy="-468.5" r="4"/></g></mask><g id="Oval" class="st13"><g><circle cx="4" cy="4" r="4" class="st4"/></g><g><circle cx="4" cy="4" r="4" class="st14"/></g></g></g><g id="arrow-copy-3" transform="translate(111.500000, 17.000000) rotate(-90.000000) translate(-111.500000, -17.000000) translate(95.000000, 13.000000)"><path d="M2,4h31" class="st11"/><defs><filter id="Adobe_OpacityMaskFilter_1_" width="12" height="12" x="-2" y="-10" filterUnits="userSpaceOnUse"><feColorMatrix type="matrix" values="1 0 0 0 0 0 1 0 0 0 0 0 1 0 0 0 0 0 1 0"/></filter></defs><mask id="mask-4_1_" width="12" height="12" x="-2" y="-10" maskUnits="userSpaceOnUse"><rect width="12" height="12" x="173.5" y="-367.5" class="st15" transform="matrix(-2.535182e-06 -1 1 -2.535182e-06 541.0004 -182.0009)"/><g><circle id="path-3_1_" cx="179.5" cy="-361.5" r="4"/></g></mask><g class="st16"><g><circle cx="4" cy="4" r="4" class="st4"/></g><g><circle cx="4" cy="4" r="4" class="st14"/></g></g></g><g id="arrow-copy-4" transform="translate(4.500000, 17.000000) rotate(-90.000000) translate(-4.500000, -17.000000) translate(-12.000000, 13.000000)"><path d="M2,4h31" class="st11"/><defs><filter id="Adobe_OpacityMaskFilter_2_" width="12" height="12" x="-2" y="-10" filterUnits="userSpaceOnUse"><feColorMatrix type="matrix" values="1 0 0 0 0 0 1 0 0 0 0 0 1 0 0 0 0 0 1 0"/></filter></defs><mask id="mask-6_1_" width="12" height="12" x="-2" y="-10" maskUnits="userSpaceOnUse"><rect width="12" height="12" x="173.5" y="-260.5" class="st17" transform="matrix(-2.535182e-06 -1 1 -2.535182e-06 434.0005 -75.0006)"/><g><circle id="path-5_1_" cx="179.5" cy="-254.5" r="4"/></g></mask><g class="st18"><g><circle cx="4" cy="4" r="4" class="st4"/></g><g><circle cx="4" cy="4" r="4" class="st14"/></g></g></g></g><g id="nodes" transform="translate(59.000000, 45.000000)"><g id="node-3" transform="translate(216.000000, 0.000000)"><g id="node" transform="translate(1.000000, 0.000000)"><g id="node-label"><path id="Rectangle-127" d="M0,2c0-1.1,0.9-2,2-2h69v10.6c0,5.9-4.8,10.6-10.6,10.6H0V2z" class="st19"/><text class="st0 st2 st20" transform="matrix(1 0 0 1 6 14)">worker node</text></g></g><g id="engine"><path d="M2,0h91c1.1,0,2,0.9,2,2v54c0,1.1-0.9,2-2,2H2c-1.1,0-2-0.9-2-2V2C0,0.9,0.9,0,2,0z" class="st21" transform="translate(2.000000, 43.000000)"/><text class="st0 st2 st3" transform="translate(2.000000, 43.000000) matrix(1 0 0 1 38.498 51)">DTR</text></g><g id="dtr"><g><g transform="translate(0.000000, 43.000000)"><path id="path-7" d="M2,0h59c1.1,0,2,0.9,2,2v18c0,1.1-0.9,2-2,2H2c-1.1,0-2-0.9-2-2V2C0,0.9,0.9,0,2,0z" class="st22"/></g><g><path d="M2,0h59c1.1,0,2,0.9,2,2v18c0,1.1-0.9,2-2,2H2c-1.1,0-2-0.9-2-2V2C0,0.9,0.9,0,2,0z" class="st4" transform="translate(0.000000, 43.000000)"/></g></g><text class="st0 st2 st3" transform="translate(0.000000, 43.000000) matrix(1 0 0 1 7.188 15)">Job runner</text></g><path id="node-border" d="M3,0h93c1.1,0,2,0.9,2,2v98c0,1.1-0.9,2-2,2H3c-1.1,0-2-0.9-2-2V2C1,0.9,1.9,0,3,0z" class="st23"/></g><g id="node-2"><g><g><path d="M0,2c0-1.1,0.9-2,2-2h69v10.6c0,5.9-4.8,10.6-10.6,10.6H0V2z" class="st19" transform="translate(108.000000, 0.000000) translate(1.000000, 0.000000)"/><text class="st0 st2 st20" transform="translate(108.000000, 0.000000) translate(1.000000, 0.000000) matrix(1 0 0 1 6 14)">worker node</text></g></g><g><path d="M2,0h91c1.1,0,2,0.9,2,2v54c0,1.1-0.9,2-2,2H2c-1.1,0-2-0.9-2-2V2C0,0.9,0.9,0,2,0z" class="st21" transform="translate(108.000000, 0.000000) translate(2.000000, 43.000000)"/><text class="st0 st2 st3" transform="translate(108.000000, 0.000000) translate(2.000000, 43.000000) matrix(1 0 0 1 38.498 51)">DTR</text></g><g><g><g transform="translate(108.000000, 0.000000) translate(0.000000, 43.000000)"><path id="path-9" d="M2,0h59c1.1,0,2,0.9,2,2v18c0,1.1-0.9,2-2,2H2c-1.1,0-2-0.9-2-2V2C0,0.9,0.9,0,2,0z" class="st22"/></g><g><path d="M2,0h59c1.1,0,2,0.9,2,2v18c0,1.1-0.9,2-2,2H2c-1.1,0-2-0.9-2-2V2C0,0.9,0.9,0,2,0z" class="st4" transform="translate(108.000000, 0.000000) translate(0.000000, 43.000000)"/></g></g><text class="st0 st2 st3" transform="translate(108.000000, 0.000000) translate(0.000000, 43.000000) matrix(1 0 0 1 7.188 15)">Job runner</text></g><path d="M3,0h93c1.1,0,2,0.9,2,2v98c0,1.1-0.9,2-2,2H3c-1.1,0-2-0.9-2-2V2C1,0.9,1.9,0,3,0z" class="st23" transform="translate(108.000000, 0.000000)"/></g><g id="node-1"><g><g><path d="M0,2c0-1.1,0.9-2,2-2h69v10.6c0,5.9-4.8,10.6-10.6,10.6H0V2z" class="st19" transform="translate(1.000000, 0.000000)"/><text class="st0 st2 st20" transform="translate(1.000000, 0.000000) matrix(1 0 0 1 6 14)">worker node</text></g></g><g><path d="M2,0h91c1.1,0,2,0.9,2,2v54c0,1.1-0.9,2-2,2H2c-1.1,0-2-0.9-2-2V2C0,0.9,0.9,0,2,0z" class="st21" transform="translate(2.000000, 43.000000)"/><text class="st0 st2 st3" transform="translate(2.000000, 43.000000) matrix(1 0 0 1 38.498 51)">DTR</text></g><g><g><g transform="translate(0.000000, 43.000000)"><path id="path-11" d="M2,0h59c1.1,0,2,0.9,2,2v18c0,1.1-0.9,2-2,2H2c-1.1,0-2-0.9-2-2V2C0,0.9,0.9,0,2,0z" class="st22"/></g><g><path d="M2,0h59c1.1,0,2,0.9,2,2v18c0,1.1-0.9,2-2,2H2c-1.1,0-2-0.9-2-2V2C0,0.9,0.9,0,2,0z" class="st4" transform="translate(0.000000, 43.000000)"/></g></g><text class="st0 st2 st3" transform="translate(0.000000, 43.000000) matrix(1 0 0 1 7.188 15)">Job runner</text></g><path d="M3,0h93c1.1,0,2,0.9,2,2v98c0,1.1-0.9,2-2,2H3c-1.1,0-2-0.9-2-2V2C1,0.9,1.9,0,3,0z" class="st23"/></g></g><path id="group" d="M2,0h429c1.1,0,2,0.9,2,2v241c0,1.1-0.9,2-2,2H2c-1.1,0-2-0.9-2-2V2C0,0.9,0.9,0,2,0z" class="st24"/></g></g></g></g></svg>